<?xml version="1.0" ?><svg xmlns="http://www.w3.org/2000/svg" xmlns:xlink="http://www.w3.org/1999/xlink" version="1.1" viewBox="0 0 512 512" style="enable-background:new 0 0 512 512;" xml:space="preserve"><style type="text/css">
	.st0{fill:#231A15;}
	.st1{fill:#FFE000;}
	.st2{fill:#BCA100;}
	.st3{fill:#FC0000;}
	.st4{fill:#AA0000;}
	.st5{fill:#F94343;}
	.st6{fill:#FFFFFF;}
	.st7{fill:#A58E07;}
	.st8{opacity:0.44;}
	.st9{fill:#756204;}
	.st10{opacity:0.64;}
	.st11{opacity:0.38;}
	.st12{fill:#5D5004;}
	.st13{fill:#B7A100;}
	.st14{fill:#1D4DFC;}
	.st15{fill:#143CAF;}
	.st16{opacity:0.59;}
	.st17{opacity:0.52;}
	.st18{fill:#FF7F1F;}
	.st19{fill:#C4570C;}
	.st20{fill:#B29904;}
	.st21{fill:#87720A;}
	.st22{fill:#DDDDDD;}
	.st23{opacity:0.51;}
	.st24{fill:#878787;}
	.st25{fill:#727272;}
	.st26{opacity:0.33;}
	.st27{opacity:0.46;}
	.st28{fill:#25CBF2;}
	.st29{fill:#0A8FA5;}
	.st30{opacity:0.58;}
	.st31{fill:#04889E;}
	.st32{fill:#035A63;}
	.st33{opacity:0.65;}
	.st34{opacity:0.39;}
	.st35{fill:#AB0000;}
	.st36{fill:#1987A1;}
	.st37{fill:#3F1F0A;}
	.st38{fill:#4DEEFF;}
	.st39{fill:#21B9C1;}
	.st40{fill:#BBF9FF;}
	.st41{fill:#64ACAF;}
	.st42{fill:#089FB7;}
	.st43{opacity:0.47;}
	.st44{opacity:0.42;}
	.st45{fill:#DBF7FC;}
	.st46{fill:#B2E7ED;}
	.st47{fill:#0FA2BA;}
	.st48{opacity:0.54;}
	.st49{fill:#8E7716;}
	.st50{fill:#191401;}
	.st51{fill:#382E02;}
	.st52{fill:#605106;}
	.st53{fill:#AFACA0;}
	.st54{fill:#BC0404;}
	.st55{fill:#750000;}
	.st56{fill:#A08B0D;}
	.st57{fill:#5B4C05;}
	.st58{opacity:0.4;}
	.st59{opacity:0.5;}
	.st60{fill:#FF8383;}
	.st61{fill:#FFF0A6;}
	.st62{fill:#E2C227;}
	.st63{fill:#AA9205;}
	.st64{fill:#FFEA71;}
	.st65{opacity:0.22;}
	.st66{fill:#B19B00;}
	.st67{fill:#1989A4;}
	.st68{fill:#13A0B7;}
	.st69{fill:#C4A805;}
	.st70{fill:#FFF3A9;}
	.st71{fill:#846E03;}
	.st72{fill:#2D2502;}
	.st73{opacity:0.36;}
	.st74{fill:#4DD307;}
	.st75{fill:#328402;}
	.st76{fill:#97FF5A;}
	.st77{fill:#7A6500;}
	.st78{fill:#246001;}
	.st79{fill:#359100;}
	.st80{fill:#968022;}
	.st81{fill:#4F420B;}
	.st82{fill:#FFED83;}
	.st83{fill:#BAA335;}
	.st84{fill:#8D0991;}
	.st85{fill:#4B044F;}
	.st86{fill:#CE15CE;}
	.st87{fill:#897502;}
	.st88{fill:#493D01;}
	.st89{fill:#C9C9C9;}
	.st90{fill:#2D280E;}
	.st91{fill:#378C06;}
	.st92{fill:#183A03;}
	.st93{fill:#94FF55;}
	.st94{fill:#2E7F04;}
	.st95{fill:#63AB39;}
	.st96{fill:#AA5F04;}
	.st97{fill:#633502;}
	.st98{fill:#EF9014;}
	.st99{fill:#A05A07;}
	.st100{fill:#05616B;}
	.st101{fill:#033335;}
	.st102{fill:#0E94AA;}
	.st103{fill:#035D66;}
	.st104{opacity:0.27;}
	.st105{opacity:0.43;}
	.st106{fill:#FFF203;}
	.st107{fill:#FFA300;}
	.st108{fill:#2B3030;}
	.st109{opacity:0.28;}
	.st110{fill:#FCD17A;}
	.st111{fill:#AF853A;}
	.st112{opacity:0.31;}
	.st113{fill:#B641FF;}
	.st114{fill:#700FBC;}
	.st115{fill:#F2D0B1;}
	.st116{fill:#AF835F;}
	.st117{fill:#C17540;}
	.st118{fill:#F2BA94;}
	.st119{fill:#592909;}
	.st120{fill:#2B1204;}
	.st121{fill:#894818;}
	.st122{fill:#512609;}
	.st123{fill:#FF7F15;}
	.st124{fill:#A04A0A;}
	.st125{fill:#B7865E;}
	.st126{fill:#70350E;}
	.st127{fill:#3A1805;}
	.st128{fill:#C1521B;}
	.st129{fill:#FFC7AE;}
	.st130{fill:#FF717F;}
	.st131{fill:#6E2F0F;}
	.st132{fill:#AC8675;}
	.st133{opacity:0.25;}
	.st134{opacity:0.32;}
	.st135{fill:#FFFCC5;}
	.st136{fill:#D1CA78;}
	.st137{fill:#D37733;}
	.st138{fill:#A04F18;}
	.st139{fill:#0ABFBA;}
	.st140{fill:#057F79;}
	.st141{fill:#15F9F9;}
	.st142{fill:#09B2AD;}
	.st143{fill:#B2B2B2;}
	.st144{fill:#FFF755;}
	.st145{fill:#BCB121;}
	.st146{fill:#F90368;}
	.st147{opacity:0.49;}
	.st148{fill:#B50857;}
	.st149{fill:#FF76B4;}
	.st150{fill:#F23091;}
	.st151{fill:#FFF800;}
	.st152{fill:#C9BF05;}
	.st153{fill:#FF8500;}
	.st154{fill:#A35507;}
	.st155{fill:#AA6E50;}
	.st156{fill:#723C25;}
	.st157{fill:#EAD4B9;}
	.st158{fill:#AA8D6F;}
	.st159{fill:#B7A8A5;}
	.st160{fill:#84726F;}
	.st161{fill:#77645F;}
	.st162{fill:#51403C;}
	.st163{fill:#EABBA7;}
	.st164{fill:#BC7F69;}
	.st165{fill:#7C5039;}
	.st166{fill:#442619;}
	.st167{fill:#B7AE04;}
	.st168{fill:#BAB108;}
	.st169{fill:#7A7105;}
	.st170{fill:#352B23;}
	.st171{fill:#050403;}
	.st172{fill:#706255;}
	.st173{fill:#44382E;}
	.st174{fill:#634319;}
	.st175{fill:#35210A;}
	.st176{fill:#2D1C08;}
	.st177{fill:#0A0601;}
	.st178{fill:#9E7443;}
	.st179{fill:#704D2A;}
	.st180{fill:#D8A73A;}
	.st181{fill:#A0741C;}
	.st182{fill:#3F2F28;}
	.st183{fill:#211410;}
	.st184{fill:#FF326C;}
	.st185{fill:#BC0749;}
	.st186{fill:#68390E;}
	.st187{fill:#A5632D;}
	.st188{fill:#3D1E05;}
	.st189{fill:#331A06;}
	.st190{fill:#110801;}
	.st191{fill:#160A02;}
	.st192{fill:#663514;}
	.st193{opacity:0.29;}
	.st194{fill:#FC001F;}
	.st195{fill:#AF021F;}
	.st196{fill:#C48622;}
	.st197{fill:#8C5910;}
	.st198{fill:#846D64;}
	.st199{fill:#513B35;}
	.st200{fill:#5B4842;}
	.st201{fill:#332522;}
	.st202{fill:#47332C;}
	.st203{fill:#543E38;}
	.st204{fill:#1E1412;}
	.st205{fill:#604C43;}
	.st206{fill:#D3896C;}
	.st207{fill:#FF001F;}
	.st208{fill:#AF0824;}
	.st209{fill:#A37462;}
	.st210{fill:#5E3E34;}
	.st211{fill:#874A38;}
	.st212{fill:#4C2218;}
	.st213{fill:#5B2B20;}
	.st214{fill:#210C09;}
	.st215{fill:#99001A;}
	.st216{fill:#A08A07;}
	.st217{fill:#A08904;}
	.st218{fill:#5B4C02;}
	.st219{fill:#CECAB7;}
	.st220{fill:#727068;}
	.st221{fill:#42403A;}
	.st222{fill:#B2B0A6;}
	.st223{fill:#726F62;}
	.st224{fill:#6B4F45;}
	.st225{fill:#3A261F;}
	.st226{fill:#777468;}
	.st227{fill:#474436;}
	.st228{fill:#B78B7D;}
	.st229{fill:#845A4E;}
	.st230{fill:#3A372D;}
	.st231{fill:#43CFFF;}
	.st232{fill:#13A0BC;}
</style><g id="_x35_6"><g><g><path class="st0" d="M253.14,103.54c-13.04,0-24.34-4.95-30.37-14.27c-0.44-0.55-0.82-1.16-1.12-1.81l-5.37-11.42     c-0.25-0.52-0.44-1.06-0.59-1.62c-1.21-3.47-1.69-7.17-1.44-11c0.01-0.12,0.01-0.25,0.02-0.37c0.01-0.12,0.03-0.27,0.04-0.41     c0.06-0.63,0.14-1.29,0.24-1.94c0.03-0.2,0.06-0.38,0.09-0.57c0.15-0.87,0.31-1.66,0.5-2.4c0.47-1.87,1.12-3.77,1.94-5.67     c0.05-0.12,0.1-0.24,0.15-0.37c0.07-0.15,0.13-0.29,0.2-0.44l0.08-0.18c0.13-0.29,0.27-0.57,0.41-0.86     c0.09-0.17,0.17-0.34,0.26-0.52l0.14-0.27c0.15-0.29,0.3-0.58,0.46-0.87c0.08-0.14,0.17-0.31,0.27-0.47l0.05-0.08     c0.44-0.77,0.89-1.52,1.36-2.24c0.06-0.1,0.14-0.22,0.21-0.33c0.15-0.23,0.32-0.47,0.48-0.71l0.23-0.33     c0.13-0.19,0.26-0.37,0.39-0.56c0.16-0.22,0.34-0.46,0.51-0.69l0.18-0.24c0.15-0.21,0.31-0.41,0.47-0.62     c0.16-0.21,0.34-0.43,0.52-0.65l0.1-0.12c0.2-0.24,0.4-0.49,0.6-0.73c0.22-0.26,0.44-0.51,0.66-0.76     c0.16-0.19,0.27-0.32,0.39-0.45c0.09-0.09,0.17-0.19,0.26-0.28c3.39-3.73,7.38-7.08,11.86-9.97c0.04-0.03,0.09-0.06,0.13-0.09     c0.13-0.08,0.26-0.17,0.4-0.25c0.5-0.32,1.05-0.66,1.6-0.98l0.68-0.39c0.48-0.28,0.96-0.55,1.44-0.81     c0.12-0.07,0.26-0.15,0.41-0.23c0.1-0.05,0.21-0.11,0.31-0.16c0.98-0.52,1.89-0.97,2.77-1.39c0.8-0.37,1.59-0.72,2.38-1.06     c0.1-0.05,0.2-0.09,0.3-0.13c0.17-0.07,0.33-0.14,0.5-0.2l0.13-0.05c0.39-0.16,0.78-0.32,1.17-0.47     c0.21-0.08,0.45-0.17,0.69-0.26l0.31-0.11c0.32-0.12,0.65-0.24,0.98-0.36c0.3-0.1,0.58-0.2,0.86-0.29l0.43-0.14     c0.24-0.08,0.48-0.16,0.72-0.24c0.66-0.21,1.32-0.4,1.97-0.58c20.11-5.6,38.64-0.36,46.51,13.02c0.29,0.42,0.55,0.87,0.77,1.34     l5.3,11.26c0.31,0.67,0.55,1.37,0.7,2.08c5.41,17.29-7.09,37.95-29.66,48.57C270.37,101.55,261.4,103.54,253.14,103.54z      M238.35,78.35c0.05,0.09,0.11,0.18,0.16,0.27c3.73,6.43,17.7,8.61,32.54,1.63c14.85-6.99,22.06-19.14,19.49-26.11     c-0.04-0.1-0.07-0.19-0.1-0.29l-4.48-9.51c-0.05-0.09-0.1-0.18-0.15-0.27c-3.11-5.76-13.95-7.75-25.21-4.61     c-0.47,0.13-0.92,0.26-1.38,0.41l-0.93,0.31c-0.17,0.05-0.33,0.11-0.5,0.17c-0.19,0.07-0.4,0.15-0.61,0.23l-0.79,0.29     c-0.29,0.11-0.55,0.22-0.81,0.32l-0.34,0.14c-0.04,0.02-0.09,0.04-0.14,0.06c-0.65,0.27-1.29,0.55-1.94,0.85     c-0.68,0.32-1.41,0.69-2.23,1.13c-0.07,0.04-0.14,0.07-0.2,0.11l-0.09,0.05c-0.34,0.18-0.67,0.37-1,0.56l-0.51,0.29     c-0.39,0.23-0.78,0.47-1.16,0.71l-0.19,0.12c-0.01,0.01-0.02,0.01-0.03,0.02c-3.22,2.07-6.05,4.44-8.39,7.05     c-0.04,0.05-0.09,0.1-0.14,0.15l-0.11,0.13c-0.13,0.15-0.28,0.32-0.43,0.49c-0.12,0.14-0.24,0.29-0.37,0.45l-0.11,0.14     c-0.09,0.12-0.19,0.23-0.28,0.35l-0.47,0.62c-0.09,0.11-0.17,0.23-0.26,0.34l-0.45,0.65c-0.07,0.1-0.14,0.19-0.2,0.29l-0.14,0.22     c-0.27,0.42-0.53,0.85-0.78,1.28l-0.2,0.34c-0.07,0.13-0.14,0.26-0.21,0.39l-0.27,0.52c-0.06,0.13-0.13,0.27-0.19,0.4l-0.13,0.28     c-0.02,0.04-0.03,0.08-0.05,0.11c-0.45,1.01-0.79,1.99-1.02,2.9c-0.07,0.29-0.14,0.61-0.21,1.03l-0.03,0.17     c-0.05,0.34-0.09,0.62-0.11,0.89c0,0.05-0.01,0.1-0.01,0.15c-0.1,1.43,0.08,2.75,0.54,3.91c0.04,0.09,0.07,0.18,0.1,0.27     L238.35,78.35z"/></g><g><path class="st0" d="M124.24,127.53c-0.43,0-0.85-0.01-1.26-0.02c-0.02,0-0.05,0-0.07,0c-2.01-0.09-4.1-0.36-6.22-0.8     c-0.13-0.02-0.25-0.05-0.38-0.08c-0.17-0.04-0.35-0.08-0.52-0.12l-0.12-0.03c-0.34-0.08-0.69-0.16-1.03-0.25     c-0.2-0.05-0.4-0.11-0.6-0.17l-0.34-0.1c-0.31-0.09-0.61-0.17-0.92-0.27c-0.21-0.07-0.39-0.13-0.57-0.19l-0.11-0.04     c-0.88-0.29-1.75-0.6-2.59-0.93c-0.13-0.05-0.27-0.1-0.42-0.16c-0.24-0.09-0.52-0.22-0.8-0.34l-0.35-0.15     c-0.22-0.09-0.43-0.18-0.65-0.28c-0.26-0.12-0.53-0.25-0.81-0.38l-0.16-0.08c-0.31-0.15-0.6-0.28-0.88-0.42     c-0.26-0.13-0.55-0.28-0.84-0.43l-0.09-0.05c-0.34-0.18-0.6-0.31-0.86-0.45c-0.32-0.18-0.63-0.35-0.95-0.53l-0.04-0.02     c-0.16-0.09-0.32-0.18-0.48-0.27c-0.11-0.06-0.22-0.13-0.33-0.2c-4.55-2.7-8.85-6.1-12.78-10.11c-0.05-0.05-0.1-0.1-0.15-0.15     c-0.11-0.11-0.21-0.22-0.32-0.34c-0.43-0.44-0.89-0.94-1.35-1.44l-0.55-0.62c-0.4-0.45-0.78-0.88-1.15-1.33     c-0.09-0.1-0.18-0.21-0.28-0.33c-0.09-0.11-0.18-0.22-0.27-0.33c-0.76-0.92-1.42-1.76-2.03-2.57c-0.51-0.69-1.03-1.4-1.6-2.24     c-0.06-0.09-0.13-0.18-0.19-0.27c-0.1-0.15-0.2-0.3-0.3-0.45l-0.14-0.22c-0.23-0.34-0.46-0.68-0.68-1.03     c-0.13-0.21-0.27-0.42-0.4-0.64l-0.24-0.38c-0.19-0.3-0.37-0.6-0.55-0.89c-0.14-0.24-0.29-0.5-0.44-0.76l-0.26-0.46     c-0.14-0.24-0.27-0.47-0.41-0.71c-0.35-0.63-0.69-1.26-1.01-1.9c0,0,0,0,0,0c-9.99-19.5-8.54-39.62,3.51-50.48     c0.36-0.37,0.75-0.72,1.17-1.03l10.59-7.91c0.6-0.45,1.25-0.82,1.93-1.11c16.58-9.2,40.43-0.66,56.12,20.32     c15.69,20.99,17.13,46.29,3.6,59.59c-0.46,0.56-1,1.07-1.6,1.52l-10.73,8.02c-0.48,0.36-0.98,0.66-1.5,0.92     c-3.29,1.96-6.96,3.23-10.93,3.77c-0.1,0.02-0.19,0.03-0.29,0.04c-0.18,0.02-0.36,0.04-0.54,0.06c-0.65,0.07-1.33,0.13-2.01,0.16     c-0.19,0.01-0.39,0.02-0.6,0.03C125.05,127.52,124.64,127.53,124.24,127.53z M123.69,108.53c0.01,0,0.01,0,0.02,0     c0.33,0.01,0.71,0.01,1.16,0l0.24-0.01c0.33-0.02,0.64-0.04,0.94-0.08c0.05-0.01,0.11-0.01,0.17-0.02     c1.6-0.21,3.02-0.71,4.21-1.49c0.09-0.06,0.17-0.11,0.26-0.16l9.07-6.78c0.08-0.08,0.17-0.16,0.25-0.23     c6.08-5.42,5.46-20.78-5.17-34.99c-10.63-14.21-25.17-19.16-32.1-14.85c-0.1,0.06-0.2,0.12-0.29,0.18l-8.99,6.72     c-0.08,0.07-0.17,0.15-0.25,0.22c-5.63,4.71-5.45,16.46,0.43,27.93l0,0c0.23,0.46,0.48,0.91,0.73,1.37l0.55,0.95     c0.08,0.14,0.16,0.28,0.25,0.43c0.12,0.21,0.24,0.39,0.36,0.58l0.51,0.82c0.16,0.25,0.32,0.49,0.48,0.73l0.24,0.37     c0.03,0.05,0.07,0.1,0.1,0.15c0.42,0.62,0.85,1.23,1.31,1.84c0.48,0.64,1.01,1.31,1.67,2.11c0.05,0.06,0.09,0.11,0.14,0.17     l0.06,0.07c0.29,0.35,0.57,0.67,0.85,0.98l0.41,0.46c0.31,0.34,0.65,0.7,0.99,1.06l0.16,0.17c0.01,0.01,0.03,0.03,0.04,0.04     c2.87,2.95,5.99,5.42,9.25,7.32c0.06,0.03,0.11,0.07,0.17,0.1l0.14,0.08c0.25,0.14,0.45,0.26,0.65,0.37l0.67,0.35     c0.16,0.09,0.32,0.17,0.49,0.25c0.18,0.09,0.33,0.16,0.48,0.23c0.01,0,0.08,0.04,0.09,0.04l0.2,0.09     c0.13,0.06,0.27,0.13,0.4,0.19l0.76,0.33c0.13,0.05,0.25,0.11,0.37,0.16l0.29,0.11c0.46,0.18,0.98,0.37,1.51,0.54l0.43,0.14     c0.11,0.03,0.26,0.08,0.42,0.12l0.62,0.18c0.18,0.05,0.36,0.09,0.54,0.13l0.26,0.06c0.04,0.01,0.08,0.02,0.13,0.03     C121.55,108.33,122.67,108.49,123.69,108.53z"/></g><g><path class="st0" d="M361.62,105.39c-7.15,0-14.87-1.65-22.43-5.08l0,0c-20.26-9.17-31.63-27.55-26.98-43.2     c0.14-0.67,0.35-1.34,0.64-1.97l4.51-9.95c0.24-0.53,0.52-1.02,0.83-1.48c1.69-2.86,3.94-5.35,6.72-7.42     c0.08-0.06,0.16-0.13,0.25-0.19c0.11-0.08,0.24-0.17,0.37-0.26c0.47-0.33,0.96-0.65,1.46-0.96l0.38-0.23     c0.75-0.44,1.38-0.79,2-1.1c1.55-0.77,3.23-1.44,5-1.98c0.13-0.04,0.27-0.09,0.4-0.13c0.09-0.03,0.19-0.05,0.29-0.08     c0.94-0.27,1.84-0.49,2.73-0.67c0.04-0.01,0.08-0.02,0.11-0.02c0.01,0,0.02,0,0.03-0.01c1-0.2,2.03-0.37,3.04-0.49h0     c0.01,0,0.02,0,0.04,0c0.97-0.12,1.98-0.2,3.07-0.26l0.25-0.01c0.95-0.04,1.88-0.05,2.88-0.04c0.14,0,0.28,0,0.42,0     c0.1,0,0.2,0.01,0.31,0.01c4.44,0.14,8.98,0.9,13.49,2.25c0.07,0.02,0.15,0.04,0.22,0.06c0.13,0.04,0.25,0.08,0.38,0.12     c0.55,0.17,1.06,0.34,1.56,0.51l0.65,0.23c0.47,0.17,0.92,0.33,1.36,0.5l0.34,0.13c0.14,0.05,0.27,0.11,0.4,0.17     c0.9,0.36,1.72,0.7,2.48,1.05c0.7,0.32,1.38,0.65,2.05,0.98c0.1,0.05,0.2,0.1,0.3,0.15c0.08,0.04,0.18,0.1,0.28,0.15     c1.03,0.53,1.97,1.04,2.88,1.57c0.03,0.02,0.06,0.03,0.09,0.05c0.03,0.02,0.09,0.06,0.13,0.08c1.01,0.6,1.92,1.17,2.77,1.75     c0.02,0.01,0.04,0.03,0.06,0.04c15.5,10.47,22.66,26.18,18.09,39.43c-0.13,0.47-0.3,0.94-0.51,1.4l-4.45,9.82     c-0.3,0.66-0.67,1.27-1.1,1.84C383.96,100.78,373.58,105.39,361.62,105.39z M330.57,62.03c-0.02,0.07-0.05,0.14-0.07,0.21     c-1.91,5.42,4.4,15.29,16.52,20.77l0,0c12.12,5.49,23.7,3.73,26.51-1.28c0.04-0.07,0.08-0.13,0.11-0.2l3.7-8.17     c0.03-0.08,0.06-0.16,0.09-0.23c1.57-4.03-1.63-11.61-10.64-17.69c-0.01-0.01-0.02-0.01-0.03-0.02c-0.6-0.4-1.26-0.82-1.95-1.22     c-0.04-0.02-0.1-0.06-0.16-0.1c-0.61-0.35-1.25-0.71-1.97-1.07c-0.02-0.01-0.05-0.03-0.08-0.04c-0.01-0.01-0.02-0.01-0.04-0.02     c-0.52-0.27-1.05-0.53-1.6-0.77c-0.56-0.25-1.2-0.52-1.94-0.81c-0.06-0.03-0.13-0.05-0.19-0.08l-0.08-0.03     c-0.29-0.11-0.6-0.23-0.92-0.34l-0.45-0.16c-0.35-0.12-0.72-0.24-1.08-0.35c-0.06-0.02-0.13-0.04-0.22-0.07     c-3.06-0.93-6.1-1.44-9.02-1.51c-0.05,0-0.1,0-0.15,0c-0.63-0.01-1.22-0.01-1.75,0.02L345,48.88c-0.6,0.03-1.18,0.08-1.69,0.14     c-0.01,0-0.02,0-0.02,0c-0.55,0.07-1.1,0.16-1.64,0.27c-0.04,0.01-0.08,0.01-0.11,0.02c-0.43,0.09-0.88,0.2-1.37,0.34h0     c-0.01,0-0.03,0.01-0.04,0.01c-0.01,0-0.02,0.01-0.04,0.01c-0.85,0.25-1.61,0.55-2.28,0.88c-0.25,0.12-0.49,0.26-0.72,0.4     l-0.11,0.07c-0.22,0.14-0.4,0.26-0.57,0.38c-0.03,0.02-0.06,0.04-0.1,0.07c-0.85,0.63-1.48,1.32-1.9,2.12     c-0.04,0.06-0.07,0.13-0.11,0.19L330.57,62.03z M371.31,36.12c0.01,0,0.01,0.01,0.01,0.01     C371.32,36.12,371.31,36.12,371.31,36.12z"/></g><g><path class="st0" d="M260.88,493.06c-5.95,0-12.01-0.16-18.18-0.48c-14.63-0.76-28.4-2-40.93-3.68     c-0.91-0.12-1.81-0.24-2.71-0.37c-26.57-3.74-47.89-9.53-63.36-17.2c-0.03-0.01-0.06-0.03-0.09-0.05     c-12.01-5.97-17.5-11.67-19.73-14.6c-0.58-0.46-1.19-0.96-1.83-1.5l-0.24-0.2c-7.53-6.36-13.85-13.86-19.32-22.92l-0.13-0.22     c-0.15-0.25-0.3-0.5-0.45-0.76l-0.16-0.27c-0.26-0.45-0.51-0.88-0.76-1.32l-0.91-1.63c-0.2-0.36-0.4-0.75-0.6-1.13l-0.18-0.34     c-0.19-0.36-0.38-0.73-0.57-1.1l-0.23-0.44c-0.44-0.86-0.87-1.74-1.29-2.63l-0.22-0.46c-0.42-0.89-0.83-1.79-1.24-2.7l-0.21-0.46     c-0.41-0.92-0.8-1.85-1.19-2.78l-0.2-0.47c-0.39-0.95-0.77-1.91-1.15-2.87L84.8,412c-0.38-0.97-0.75-1.97-1.11-2.98l-0.15-0.41     c-0.37-1.04-0.73-2.07-1.09-3.12l-0.13-0.39c-0.36-1.07-0.71-2.14-1.06-3.23l-0.11-0.33c-0.35-1.12-0.69-2.24-1.03-3.37     l-0.09-0.31c-0.34-1.14-0.67-2.31-0.99-3.49l-0.07-0.24c-0.33-1.21-0.66-2.43-0.98-3.66l-0.05-0.18     c-0.32-1.25-0.64-2.52-0.95-3.8l-0.02-0.1c-0.32-1.32-0.63-2.64-0.93-3.98c-2.31-10.2-4.31-21.43-6.13-34.4     c-0.22-1.55-0.42-3.08-0.6-4.6c-0.1-0.79-0.19-1.57-0.27-2.35l-0.22-1.98c-0.13-1.22-0.25-2.44-0.37-3.66l-0.04-0.46     c-0.12-1.34-0.24-2.68-0.34-4.01c0-0.02,0-0.05,0-0.07c-1.89-24.63-0.14-47.81,5.2-68.89c0.01-0.05,0.03-0.1,0.03-0.13     c0.85-3.33,1.8-6.68,2.83-9.92c0,0,0.05-0.15,0.05-0.15c0.99-3.11,2.08-6.18,3.22-9.14c0.01-0.03,0.04-0.12,0.06-0.14     c6.95-17.91,16.25-31.98,25.04-41.01c-4.03-0.39-8.09-1.21-12.15-2.42c-0.06-0.02-0.12-0.03-0.17-0.05     c-0.16-0.05-0.32-0.1-0.48-0.15c-0.57-0.18-1.22-0.39-1.87-0.61c-0.22-0.08-0.47-0.17-0.72-0.26l-0.09-0.03     c-0.5-0.18-1.04-0.38-1.58-0.59c-0.12-0.04-0.28-0.1-0.44-0.16c-0.13-0.05-0.25-0.1-0.37-0.15c-1.08-0.43-2.06-0.84-2.99-1.26     c-0.77-0.35-1.56-0.73-2.46-1.18c-0.11-0.05-0.22-0.11-0.33-0.16c-0.11-0.05-0.21-0.11-0.31-0.17c-1.2-0.62-2.33-1.23-3.42-1.87     c-0.05-0.03-0.17-0.1-0.22-0.13c-1.12-0.66-2.25-1.37-3.32-2.09c-0.03-0.02-0.05-0.03-0.08-0.05     c-18.12-12.24-26.53-30.48-21.23-45.74c0.13-0.49,0.31-0.98,0.52-1.46l5.42-11.97c0.32-0.7,0.71-1.34,1.16-1.92     c10.05-15.97,34.93-19.98,58.68-9.23c6.5,2.94,12.32,6.73,17.24,11.17c3.8-3.1,8.25-5.51,13.17-7.16     c0.59-2.81,1.55-5.49,2.89-8.01c0.21-0.48,0.46-0.95,0.76-1.4l8-12.27c0.42-0.64,0.91-1.23,1.46-1.74     c13.39-15.54,40.93-15.68,64.84-0.1c3.04,1.98,5.9,4.14,8.56,6.47c3.78-4.06,8.18-7.72,13.11-10.91     c0.06-0.04,0.13-0.09,0.19-0.13c0.13-0.09,0.27-0.17,0.41-0.25l-0.07,0.04c0.67-0.43,1.3-0.81,1.94-1.19     c0.21-0.13,0.44-0.25,0.66-0.38l0.15-0.09c0.53-0.3,1.08-0.61,1.64-0.92c0.13-0.08,0.27-0.15,0.41-0.23     c0.13-0.07,0.27-0.14,0.41-0.21c1.17-0.62,2.19-1.13,3.21-1.61c0.83-0.39,1.72-0.79,2.77-1.23c0.1-0.05,0.21-0.09,0.32-0.14     c0.17-0.07,0.35-0.14,0.52-0.21l0.3-0.12c0.41-0.17,0.82-0.33,1.23-0.49c0.24-0.09,0.47-0.18,0.71-0.26l0.57-0.21     c0.34-0.13,0.68-0.25,1.03-0.37c0.31-0.11,0.62-0.21,0.92-0.31l0.55-0.18c0.28-0.1,0.57-0.19,0.85-0.28     c0.75-0.23,1.51-0.46,2.26-0.67c22.94-6.38,44.01-0.51,52.87,14.61c0.3,0.43,0.57,0.89,0.8,1.38l6.24,13.25     c0.05,0.11,0.1,0.22,0.15,0.33c13.99-3.21,27.59-2.84,38.83,1.06c0.87-1.27,1.79-2.53,2.75-3.76c0.06-0.08,0.11-0.15,0.17-0.22     c0.09-0.11,0.18-0.23,0.28-0.34c0.45-0.57,0.92-1.14,1.4-1.71c0.14-0.17,0.29-0.34,0.44-0.51l0.15-0.17     c0.42-0.49,0.84-0.96,1.26-1.42c0.1-0.12,0.22-0.25,0.33-0.37c0.1-0.11,0.2-0.22,0.31-0.32c0.89-0.95,1.71-1.79,2.5-2.57     c0.67-0.65,1.37-1.31,2.2-2.06c0.09-0.09,0.18-0.17,0.28-0.26c0.14-0.13,0.28-0.25,0.43-0.37l0.22-0.19     c0.34-0.3,0.68-0.59,1.02-0.88c0.21-0.18,0.43-0.36,0.65-0.54l0.37-0.3c0.29-0.24,0.59-0.48,0.88-0.72     c0.26-0.2,0.52-0.41,0.79-0.61l0.45-0.34c0.23-0.18,0.46-0.36,0.69-0.53c0.63-0.47,1.27-0.93,1.91-1.37     c19.6-13.55,41.44-14.91,54.75-3.52c0.42,0.31,0.82,0.65,1.2,1.04l10.23,10.48c0.54,0.55,1,1.16,1.38,1.81     c12.25,16.46,6.39,43.36-14.03,63.3l0,0c-11.95,11.67-26.8,18.63-40.4,19.27c-1.38,3.42-3.1,6.84-5.13,10.18     c0.15,0.15,0.3,0.29,0.45,0.44l0.56,0.56c0.2,0.2,0.4,0.41,0.61,0.62c0.2,0.2,0.4,0.42,0.6,0.63l1.19,1.28     c0.2,0.22,0.4,0.44,0.6,0.67c0.2,0.22,0.4,0.45,0.61,0.69l1.21,1.42c0.18,0.22,0.37,0.45,0.56,0.68l0.14,0.17     c0.33,0.4,0.65,0.81,0.98,1.22l1.89,2.47c0.2,0.27,0.41,0.56,0.62,0.84c0.2,0.27,0.4,0.55,0.6,0.84c0.2,0.28,0.41,0.58,0.62,0.88     c0.2,0.29,0.41,0.59,0.62,0.89l0.6,0.89c0.19,0.28,0.38,0.57,0.58,0.87l0.24,0.36c0.14,0.2,0.27,0.41,0.41,0.62     c5.1,7.89,9.54,16.77,13.19,26.38c0.77,2.02,1.51,4.1,2.2,6.16c0,0.01,0.01,0.03,0.01,0.04c0.2,0.6,0.4,1.21,0.59,1.81l0.23,0.72     c0,0.01,0.03,0.09,0.03,0.1l-0.01-0.02c0,0.01,0.01,0.03,0.01,0.04c0.19,0.6,0.38,1.21,0.56,1.82l0.26,0.86     c0.38,1.29,0.76,2.6,1.12,3.93l0.1,0.37c0.16,0.59,0.31,1.17,0.46,1.76c0.11,0.44,0.21,0.83,0.31,1.22     c0.14,0.58,0.29,1.17,0.43,1.76l0.3,1.26c0.2,0.88,0.4,1.75,0.59,2.64l0.06,0.27c0.11,0.52,0.22,1.03,0.33,1.56     c0.09,0.46,0.18,0.92,0.27,1.38l0.06,0.3c0.1,0.51,0.2,1.03,0.3,1.54c0.1,0.54,0.21,1.11,0.31,1.67c0.1,0.56,0.2,1.13,0.29,1.69     l0.06,0.33c0.07,0.42,0.14,0.83,0.21,1.25c0.16,1,0.32,2.02,0.47,3.04c0.05,0.35,0.1,0.71,0.15,1.07l0.06,0.41     c0.09,0.66,0.18,1.31,0.26,1.98c0.07,0.52,0.13,1.05,0.19,1.58c0.08,0.69,0.16,1.39,0.24,2.1l0.15,1.43     c0.11,1.11,0.22,2.24,0.32,3.37l0.1,1.25c0.06,0.81,0.13,1.63,0.18,2.45l0.1,1.48c0.05,0.81,0.1,1.64,0.14,2.46l0.07,1.33     c0.05,1.22,0.1,2.45,0.13,3.69l0.02,0.98c0.02,0.98,0.04,1.97,0.05,2.96l0.01,1.39c0,0.93,0,1.86-0.01,2.8l-0.01,1.27     c-0.02,1.33-0.04,2.66-0.08,4.01l-0.02,0.68c-0.04,1.16-0.08,2.31-0.14,3.48l-0.07,1.36c-0.05,1-0.11,2.02-0.18,3.04l-0.08,1.28     c-0.1,1.42-0.2,2.84-0.33,4.28l-0.04,0.4c-0.11,1.3-0.24,2.64-0.38,3.98l-0.14,1.36c-0.12,1.08-0.24,2.16-0.37,3.26l-0.16,1.34     c-0.19,1.5-0.38,3.01-0.6,4.53c-2.73,19.46-5.95,35.45-9.84,48.89l-0.13,0.43c-0.34,1.15-0.68,2.3-1.03,3.44l-0.15,0.49     c-0.37,1.17-0.74,2.32-1.12,3.46l-0.1,0.31c-1.27,3.79-2.65,7.45-4.07,10.87c-0.01,0.03-0.06,0.13-0.07,0.16     c-0.44,1.06-0.9,2.11-1.37,3.16l-0.24,0.52c-0.41,0.91-0.85,1.84-1.29,2.76l-0.26,0.54c-0.46,0.94-0.92,1.87-1.39,2.77l-0.2,0.39     c-1.67,3.19-3.46,6.24-5.32,9.09l-0.16,0.24c-0.58,0.88-1.14,1.71-1.72,2.53l-0.36,0.51c-0.53,0.75-1.07,1.48-1.62,2.2     l-0.42,0.55c-0.57,0.74-1.14,1.46-1.72,2.17l-0.35,0.43c-1.97,2.38-4.03,4.63-6.14,6.7c-0.56,0.64-1.7,1.86-3.46,3.51     c-0.01,0.01-0.01,0.01-0.02,0.02c-0.02,0.01-0.06,0.06-0.08,0.07c-0.21,0.2-0.44,0.4-0.67,0.61l-0.1,0.09     c-0.23,0.21-0.48,0.43-0.73,0.65c0,0-0.08,0.07-0.08,0.07c-0.3,0.26-0.55,0.48-0.82,0.71c-0.02,0.02-0.08,0.07-0.11,0.09     c-0.29,0.25-0.59,0.5-0.9,0.75c-0.02,0.02-0.06,0.05-0.08,0.07c-0.31,0.26-0.64,0.53-0.97,0.8c-0.42,0.34-0.78,0.63-1.16,0.92     c0,0,0,0,0,0c-0.01,0.01-0.02,0.01-0.03,0.02c-0.37,0.29-0.75,0.59-1.15,0.89c-0.02,0.01-0.04,0.03-0.05,0.04l0,0     c-7.43,5.64-20.26,13.77-39.26,20.49c-0.02,0.01-0.03,0.01-0.05,0.02c-0.91,0.32-1.84,0.64-2.78,0.96     c-0.03,0.01-0.07,0.02-0.1,0.03c-0.92,0.31-1.85,0.61-2.79,0.91C314.53,489.47,289,493.06,260.88,493.06z M144.22,454.36     c9.41,4.65,27,11.07,57.49,15.37c0.84,0.12,1.7,0.24,2.57,0.35c12.03,1.61,25.29,2.8,39.41,3.54     c33.07,1.72,62.52-1.43,87.54-9.38c0.87-0.28,1.72-0.55,2.56-0.84c0.03-0.01,0.07-0.02,0.1-0.03c0.81-0.27,1.61-0.55,2.39-0.82     c0.02-0.01,0.04-0.01,0.06-0.02c16.66-5.89,27.72-12.86,34.08-17.68c0.02-0.02,0.04-0.03,0.07-0.05     c0.33-0.25,0.64-0.49,0.95-0.73c0.01-0.01,0.03-0.02,0.04-0.03l0,0c0.3-0.24,0.59-0.47,0.88-0.7c0.31-0.25,0.58-0.47,0.83-0.68     c0.02-0.02,0.06-0.05,0.08-0.07c0.23-0.19,0.46-0.38,0.68-0.57l0.72-0.62l6.36,7.05l-6.28-7.12c0.19-0.17,0.37-0.33,0.54-0.48     c0.03-0.03,0.06-0.06,0.09-0.08l0.49-0.45c0,0,0,0,0,0c1.58-1.48,2.33-2.34,2.33-2.35c0.21-0.25,0.39-0.44,0.63-0.67     c1.72-1.68,3.42-3.52,5.04-5.49l0.29-0.36c0.45-0.55,0.9-1.12,1.35-1.7l0.34-0.45c0.44-0.58,0.87-1.16,1.29-1.76l0.3-0.42     c0.46-0.66,0.92-1.33,1.37-2.01l0.12-0.19c1.55-2.37,3.03-4.9,4.41-7.54l0.19-0.36c0.39-0.74,0.78-1.52,1.16-2.31l0.23-0.48     c0.37-0.77,0.74-1.56,1.11-2.37l0.19-0.43c0.4-0.9,0.8-1.81,1.19-2.74c0.01-0.03,0.05-0.12,0.06-0.15     c1.25-2.98,2.46-6.22,3.59-9.6l0.09-0.26c0.34-1.02,0.67-2.05,1.01-3.11l0.14-0.46c0.31-1.01,0.63-2.06,0.94-3.12l0.11-0.39     c3.63-12.56,6.67-27.69,9.27-46.25c0.2-1.42,0.38-2.83,0.55-4.22l0.15-1.25c0.12-1.02,0.24-2.03,0.34-3.04l0.13-1.26     c0.13-1.24,0.24-2.48,0.35-3.72l0.03-0.35c0.11-1.33,0.21-2.65,0.3-3.97l0.08-1.2c0.06-0.94,0.11-1.88,0.16-2.81l0.06-1.25     c0.05-1.08,0.09-2.15,0.13-3.21l0.02-0.64c0.04-1.24,0.06-2.47,0.08-3.69l0.01-1.17c0.01-0.86,0.01-1.71,0-2.57l-0.01-1.28     c-0.01-0.91-0.03-1.81-0.05-2.71l-0.02-0.91c-0.03-1.13-0.07-2.26-0.12-3.38l-0.06-1.21c-0.04-0.76-0.08-1.51-0.13-2.25     l-0.09-1.35c-0.05-0.74-0.11-1.49-0.17-2.23l-0.09-1.15c-0.09-1.02-0.18-2.04-0.29-3.06l-0.14-1.3c-0.07-0.64-0.14-1.27-0.22-1.9     c-0.06-0.48-0.12-0.96-0.18-1.43c-0.08-0.6-0.16-1.19-0.24-1.78l-0.18-1.34c-0.13-0.93-0.28-1.84-0.42-2.75     c-0.06-0.36-0.12-0.72-0.18-1.08l-0.06-0.35c-0.09-0.51-0.17-1.02-0.26-1.52c-0.09-0.5-0.18-1.01-0.28-1.51     c-0.09-0.48-0.18-0.93-0.27-1.39l-0.06-0.31c-0.08-0.4-0.16-0.8-0.24-1.2c-0.09-0.46-0.19-0.91-0.29-1.37l-0.06-0.28     c-0.17-0.79-0.35-1.57-0.53-2.35l-0.27-1.14c-0.13-0.53-0.26-1.05-0.39-1.57l-0.26-1.02c-0.15-0.59-0.29-1.11-0.42-1.62     l-0.1-0.35c-0.32-1.18-0.65-2.34-1-3.49l-0.23-0.76c-0.17-0.54-0.33-1.08-0.5-1.62c-0.02-0.05-0.03-0.1-0.04-0.14l-0.19-0.6     c-0.18-0.55-0.35-1.1-0.53-1.64c-0.01-0.02-0.01-0.03-0.02-0.05c-0.6-1.81-1.25-3.62-1.93-5.39c-3.18-8.37-7.02-16.05-11.4-22.84     l-0.56-0.85c-0.15-0.24-0.31-0.47-0.46-0.7l-0.51-0.75c-0.17-0.25-0.34-0.49-0.51-0.73l-3.09-4.15     c-0.26-0.32-0.52-0.65-0.78-0.97l-3.41-3.89l-1.33-1.36c-0.26-0.26-0.53-0.52-0.8-0.77l-3.36-2.86c-0.15-0.11-0.3-0.22-0.45-0.33     l-0.45-0.31c-2.2-1.46-3.69-3.77-4.12-6.37c-0.43-2.6,0.25-5.27,1.87-7.35c4.63-5.96,7.88-12.28,9.42-18.28     c1.22-4.74,5.83-7.77,10.67-7.02c9.62,1.52,22.34-3.86,32.4-13.68c14.47-14.13,17.75-31.48,11.73-38.81     c-0.09-0.1-0.17-0.21-0.25-0.32l-8.77-8.98c-0.09-0.08-0.19-0.16-0.28-0.25c-6.34-5.82-19.76-3.95-31.9,4.44     c-0.48,0.33-0.95,0.67-1.42,1.02c-0.13,0.1-0.25,0.19-0.38,0.29l-0.56,0.43c-0.17,0.13-0.34,0.25-0.5,0.39     c-0.2,0.16-0.39,0.32-0.59,0.48l-0.84,0.69c-0.25,0.21-0.49,0.42-0.73,0.63l-0.38,0.33c-0.05,0.05-0.1,0.09-0.15,0.13     c-0.74,0.66-1.33,1.21-1.87,1.73c-0.65,0.63-1.34,1.34-2.11,2.18c-0.06,0.06-0.12,0.12-0.17,0.18l-0.07,0.08     c-0.34,0.37-0.66,0.73-0.97,1.09l-0.44,0.51c-0.37,0.43-0.72,0.87-1.07,1.3c-0.05,0.06-0.1,0.13-0.17,0.21     c-0.01,0.01-0.02,0.03-0.03,0.04c-2.18,2.76-4.04,5.68-5.54,8.65c-1.18,2.35-3.29,4.11-5.82,4.84c-2.53,0.74-5.25,0.39-7.51-0.96     c-9.99-5.95-26.13-6.09-42.12-0.35c-2.97,1.07-6.28,0.59-8.83-1.29c-2.55-1.87-3.99-4.88-3.87-8.04     c0.07-1.69-0.16-3.26-0.68-4.68c-0.05-0.13-0.09-0.25-0.13-0.38l-5.34-11.35c-0.06-0.11-0.13-0.22-0.19-0.33     c-4.09-7.58-17.38-10.21-31.59-6.25c-0.57,0.16-1.13,0.32-1.69,0.5c-0.16,0.05-0.3,0.1-0.45,0.15l-0.7,0.23     c-0.19,0.06-0.38,0.12-0.56,0.19c-0.23,0.08-0.45,0.16-0.68,0.25l-1.05,0.39c-0.29,0.11-0.59,0.24-0.89,0.36l-0.5,0.2     c-0.05,0.02-0.11,0.05-0.16,0.07c-0.93,0.39-1.67,0.71-2.33,1.03c-0.83,0.39-1.69,0.83-2.72,1.38c-0.07,0.04-0.14,0.08-0.22,0.11     l-0.1,0.06c-0.44,0.24-0.85,0.47-1.25,0.7l-0.6,0.35c-0.49,0.29-0.96,0.58-1.43,0.88c-0.06,0.04-0.15,0.09-0.24,0.15     c-0.01,0.01-0.02,0.01-0.03,0.02c-3.92,2.51-7.36,5.41-10.22,8.59c-0.05,0.06-0.1,0.11-0.15,0.17l-0.12,0.14     c-0.21,0.23-0.38,0.43-0.55,0.63c-0.16,0.19-0.31,0.37-0.46,0.56l-0.09,0.11c-0.14,0.17-0.28,0.34-0.41,0.51     c-0.1,0.12-0.2,0.27-0.31,0.41l-0.25,0.33c-0.11,0.14-0.22,0.29-0.32,0.43l-0.51,0.74c-0.09,0.13-0.18,0.26-0.27,0.39l-0.15,0.23     c-0.26,0.41-0.5,0.78-0.72,1.15c-1.58,2.66-4.36,4.39-7.45,4.62c-3.08,0.23-6.1-1.06-8.06-3.46c-3.42-4.18-7.61-7.9-12.46-11.06     c-16.95-11.05-34.59-10.47-40.43-2.99c-0.08,0.11-0.17,0.21-0.25,0.31l-6.85,10.51c-0.06,0.11-0.12,0.22-0.18,0.33     c-1.1,1.91-1.62,4.18-1.55,6.77c0.12,4.72-3.25,8.82-7.91,9.61c-5.36,0.91-9.71,2.98-12.93,6.17c-0.15,0.15-0.31,0.29-0.47,0.43     l-3.08,3.64c-1.87,2.21-4.66,3.44-7.55,3.35c-2.9-0.1-5.59-1.51-7.32-3.84c-3.99-5.39-10.14-10.15-17.3-13.39     c-16.05-7.27-31.06-4.6-35.01,2.44c-0.06,0.1-0.11,0.2-0.17,0.29l-4.6,10.16c-0.04,0.1-0.07,0.2-0.11,0.31     c-2.59,6.67,3.32,17.01,13.75,24.05c0.01,0.01,0.02,0.01,0.03,0.02l0,0c0.78,0.53,1.62,1.06,2.49,1.57     c0.04,0.02,0.15,0.09,0.18,0.11c0.73,0.43,1.6,0.9,2.53,1.38c0.04,0.02,0.08,0.04,0.12,0.06c0.01,0.01,0.02,0.01,0.03,0.02     c0.66,0.34,1.33,0.66,2.02,0.98c0.74,0.33,1.54,0.67,2.46,1.03c0.07,0.03,0.13,0.05,0.2,0.08c0.05,0.02,0.09,0.03,0.14,0.05     c0.38,0.14,0.76,0.29,1.15,0.42l0.56,0.2c0.49,0.17,0.94,0.31,1.4,0.46l0.23,0.07c0.02,0.01,0.04,0.01,0.06,0.02     c3.92,1.19,7.8,1.84,11.55,1.94c0.07,0,0.14,0,0.21,0.01h0.2c0.21,0,0.44,0.01,0.66,0.01l0.66-0.01c0.22,0,0.45-0.01,0.68-0.02     l0.78-0.05c0.17-0.01,0.33-0.02,0.5-0.03l0.77-0.08c0.14-0.01,0.27-0.03,0.41-0.04l0.17-0.02c0.61-0.08,1.17-0.17,1.73-0.28     l0.42-0.08c0.12-0.02,0.27-0.06,0.41-0.09l0.64-0.15c0.18-0.05,0.37-0.1,0.56-0.15l0.22-0.06c0.06-0.02,0.11-0.03,0.17-0.05     l0.34-0.1c2.42-0.76,5.08-0.52,7.32,0.67c2.24,1.19,3.94,3.22,4.67,5.65c0.78,2.62,1.8,5.27,3.03,7.89     c1.8,3.83,0.85,8.4-2.34,11.19c-1.95,1.7-4.44,2.49-6.89,2.33c-4.84,2.8-17.84,15.48-27.38,40.07l-0.04,0.09     c-1.02,2.64-1.98,5.36-2.86,8.1l-9.09-2.75l9.05,2.88c-0.92,2.88-1.77,5.86-2.53,8.86c-4.85,19.18-6.42,40.33-4.69,62.92     c0,0.02,0,0.04,0,0.06c0.09,1.22,0.2,2.44,0.31,3.67l0.04,0.42c0.11,1.14,0.22,2.27,0.34,3.42l0.21,1.87     c0.08,0.72,0.16,1.43,0.25,2.16c0.17,1.42,0.36,2.84,0.56,4.28c1.75,12.44,3.65,23.17,5.83,32.8c0.29,1.3,0.58,2.53,0.88,3.74     c0.01,0.02,0.02,0.08,0.03,0.11c0.29,1.19,0.58,2.37,0.88,3.53l0.04,0.17c0.29,1.13,0.59,2.25,0.9,3.36l0.07,0.25     c0.29,1.05,0.59,2.11,0.9,3.17l0.08,0.28c0.31,1.03,0.62,2.05,0.93,3.05l0.1,0.31c0.31,0.98,0.62,1.95,0.95,2.9l0.11,0.32     c0.33,0.97,0.65,1.89,0.98,2.8l0.13,0.36c0.33,0.9,0.65,1.78,0.99,2.64l0.17,0.42c0.32,0.83,0.66,1.67,1,2.49l0.18,0.42     c0.34,0.8,0.68,1.61,1.03,2.4l0.18,0.39c0.36,0.8,0.71,1.57,1.07,2.33l0.2,0.4c0.36,0.74,0.72,1.49,1.09,2.22l0.18,0.35     c0.16,0.32,0.32,0.62,0.48,0.93c0.01,0.02,0.06,0.11,0.07,0.14l0.1,0.18c0.16,0.31,0.32,0.62,0.49,0.92l0.78,1.39     c0.2,0.35,0.4,0.71,0.6,1.05l0.09,0.15c0.01,0.01,0.04,0.08,0.05,0.08l0.48,0.8c4.38,7.25,9.39,13.22,15.31,18.22l0.17,0.15     c0.89,0.74,1.66,1.37,2.37,1.91c0.94,0.71,1.73,1.6,2.34,2.6c0,0,0,0,0.01,0.01l0,0c0.33,0.44,3.46,4.35,13.17,9.17     C144.16,454.33,144.19,454.34,144.22,454.36z M119.94,207.75c0,0,0.01,0.01,0.01,0.01C119.94,207.76,119.94,207.75,119.94,207.75     z M434.3,163.84L434.3,163.84L434.3,163.84z"/></g></g><g><g><g><g><path class="st7" d="M299.44,50.84l0.06-0.03l-5.3-11.26c-0.97,0.09-1.93,0.12-2.9,0.22c-1.12,0.12-1.67-1.05-1.34-1.83       l-3.03,1.43c-9.11-3.22-21.57-2.31-33.55,3.33c-11.97,5.63-20.62,14.65-23.95,23.73l-4.11,1.93c0.42,0.12,0.82,0.22,1.14,0.24       c1.26,0.07,1.53,1.87,0.42,2.39c-0.68,0.32-1.36,0.65-2.02,1l5.37,11.42l0.06-0.03c6.75,11.62,26.34,14.13,44.8,5.45       S304.1,63.45,299.44,50.84z"/></g><g><path class="st1" d="M224.53,66.56c-0.02-0.01-0.04-0.01-0.05-0.01l0.06-0.03C224.53,66.53,224.53,66.55,224.53,66.56z        M224.71,69.82c-0.02,0.01-0.04,0.02-0.06,0.03l0.1,0.22C224.73,69.99,224.72,69.91,224.71,69.82z M294.97,59.48l2.56,5.44       c0.65-1.49,1.16-2.99,1.52-4.48L296.49,55C296.13,56.49,295.62,57.99,294.97,59.48z M294.64,70.15       c0.9-1.34,1.69-2.71,2.35-4.08l-2.56-5.44c-0.67,1.37-1.46,2.74-2.35,4.08L294.64,70.15z M289.33,76.57       c1.71-1.71,3.23-3.49,4.55-5.31l-2.56-5.44c-1.32,1.83-2.84,3.61-4.55,5.31L289.33,76.57z M283.54,81.51       c1.65-1.21,3.19-2.48,4.62-3.81l-2.56-5.44c-1.43,1.33-2.97,2.6-4.62,3.81L283.54,81.51z M277.11,85.56       c1.92-1.04,3.75-2.17,5.47-3.37l-2.56-5.44c-1.72,1.2-3.54,2.33-5.47,3.37L277.11,85.56z M268.06,83.13l2.56,5.44       c1.21-0.47,2.41-0.99,3.61-1.55c0.63-0.29,1.24-0.6,1.85-0.91l-2.56-5.44c-0.61,0.31-1.22,0.62-1.85,0.91       C270.48,82.14,269.27,82.66,268.06,83.13z M264.13,90.66c1.67-0.42,3.36-0.94,5.04-1.54l-2.56-5.44       c-1.69,0.61-3.37,1.12-5.04,1.54L264.13,90.66z M257.04,91.94c1.89-0.2,3.81-0.52,5.75-0.96l-2.56-5.44       c-1.94,0.44-3.86,0.76-5.75,0.96L257.04,91.94z M251.17,92.18c1.77,0.05,3.6-0.02,5.46-0.2l-2.56-5.44       c-1.86,0.18-3.69,0.25-5.46,0.2L251.17,92.18z M244.86,91.48c1.8,0.36,3.7,0.59,5.66,0.67l-2.56-5.44       c-1.96-0.08-3.85-0.31-5.66-0.67L244.86,91.48z M233.16,82.51c-1.61-1.02-3.04-2.21-4.25-3.57l2.56,5.43       c1.21,1.37,2.64,2.56,4.25,3.58L233.16,82.51z M237.36,84.61c-1.38-0.54-2.69-1.17-3.89-1.91l2.56,5.44       c1.2,0.73,2.51,1.37,3.89,1.91L237.36,84.61z M240.43,90.25c1.18,0.43,2.42,0.79,3.71,1.08l-2.56-5.44       c-1.29-0.29-2.53-0.65-3.71-1.08L240.43,90.25z M299.26,59.52c0.37-1.87,0.51-3.73,0.38-5.54l-2.56-5.44       c0.12,1.81-0.01,3.66-0.39,5.54L299.26,59.52z"/></g><g><ellipse transform="matrix(0.9048 -0.4258 0.4258 0.9048 0.6016 116.0873)" class="st1" cx="259.97" cy="56.7" rx="38.28" ry="25.49"/></g><g class="st10"><path class="st6" d="M291.79,62.04c-2.08,3.31-4.84,6.51-8.18,9.42l-57.72-15.9c1.47-3.3,3.62-6.57,6.37-9.64L291.79,62.04z        M278.67,75.29l-54.32-15.26c-0.32,1.26-0.52,2.52-0.62,3.77l52.12,13.3C276.82,76.51,277.76,75.91,278.67,75.29z M250.73,84.9       c3.26-0.14,6.67-0.64,10.12-1.53l-34.38-8.33c1.2,1.86,2.75,3.46,4.58,4.81L250.73,84.9z M246.43,34.98       c-1.32,0.71-2.6,1.46-3.83,2.25l53.34,14.48c0.16-0.93,0.27-1.85,0.31-2.77L246.43,34.98z M258.05,30.3       c-2.21,0.61-4.43,1.38-6.64,2.31l44.58,12.14c-0.25-1.39-0.66-2.74-1.24-4.04L258.05,30.3z"/></g><g><ellipse transform="matrix(0.9048 -0.4258 0.4258 0.9048 0.6016 116.0873)" class="st7" cx="259.97" cy="56.7" rx="30.93" ry="20.6"/></g><g><ellipse transform="matrix(0.9048 -0.4258 0.4258 0.9048 0.2479 116.3617)" class="st1" cx="260.41" cy="57.63" rx="28.66" ry="19.09"/></g><g class="st11"><path class="st6" d="M268.53,74.9c-0.15,0.07-0.31,0.14-0.46,0.21l-34.68-8.85c-0.19-1.21-0.21-2.45-0.08-3.72L271.6,73.3       C270.61,73.86,269.59,74.4,268.53,74.9z M240.89,48.27c-2.99,3-5.21,6.32-6.46,9.65l42.55,11.72c3.5-2.83,6.26-6.07,8.08-9.42       L240.89,48.27z M266.01,36.59l17.26,4.7C279.31,37.66,273.04,36.02,266.01,36.59z M257.87,38.19c-1.63,0.5-3.27,1.12-4.9,1.85       l34.51,9.37c-0.13-1.08-0.39-2.13-0.79-3.15L257.87,38.19z"/></g><g><path class="st7" d="M259.47,68.08c3.38-1.59,5.26-4.54,4.58-11.01l-0.03-0.29l10.08-4.74c0.26,0.63,0.49,1.33,0.67,2.14       l-2.03,1.57c-1.91,1.5-2,2.8-1.58,3.71c0.37,0.78,1.11,1.29,2.13,1.21c3.16-1.77,4.19-5.7,2.79-9.57l3.75-1.77l-0.78-1.65       l-3.74,1.76c-2.36-4.23-6.99-5.82-10.98-3.94c-4.12,1.94-5.14,5.54-4.63,10.58l0.06,0.62l-10.19,4.8       c-0.41-0.94-0.79-1.98-1.05-3.12l2.01-1.56c1.95-1.52,2.06-2.68,1.59-3.67c-0.43-0.91-1.15-1.27-2.15-1.25       c-3.45,1.82-4.34,6.19-2.39,10.53l-4.21,1.98l0.78,1.65l4.28-2.01C251.18,68.55,255.45,69.97,259.47,68.08z M266.73,48.31       c2.69-1.26,5.03-0.2,6.53,2.11l-9.45,4.45C263.48,51.7,264.19,49.5,266.73,48.31z M250.44,63.11l9.52-4.48       c0.26,3.58-0.36,5.46-2.79,6.6C254.52,66.48,252.08,65.6,250.44,63.11z"/></g></g><g><g><path class="st7" d="M97.75,41.85l-0.04-0.06l-10.59,7.91c0.3,0.99,0.53,1.99,0.85,2.97c0.37,1.14-0.74,1.96-1.61,1.79       l2.13,2.85c-1.41,10.17,2.2,22.93,10.62,34.19s19.63,18.33,29.79,19.85l2.89,3.86c0.03-0.47,0.06-0.9,0.01-1.23       c-0.19-1.33,1.62-1.99,2.39-0.95c0.48,0.64,0.96,1.27,1.47,1.89l10.73-8.03l-0.04-0.06c10.65-9.49,9.09-30.42-3.88-47.76       S109.87,34.32,97.75,41.85z"/></g><g><path class="st1" d="M130.08,116.43c0,0.02,0,0.04,0,0.06l-0.04-0.05C130.05,116.44,130.06,116.44,130.08,116.43z        M133.43,115.56c0.02,0.02,0.03,0.04,0.05,0.06l0.21-0.16C133.6,115.49,133.52,115.52,133.43,115.56z M107.7,44.67l5.11-3.82       c-1.69-0.36-3.36-0.57-4.98-0.63l-5.11,3.82C104.34,44.1,106.01,44.31,107.7,44.67z M118.86,42.73       c-1.59-0.65-3.17-1.18-4.74-1.58L109,44.97c1.57,0.4,3.16,0.93,4.74,1.58L118.86,42.73z M126.67,46.89       c-2.14-1.42-4.32-2.62-6.5-3.6l-5.11,3.82c2.18,0.98,4.36,2.18,6.5,3.6L126.67,46.89z M133.05,51.86       c-1.61-1.46-3.26-2.79-4.95-3.99l-5.11,3.82c1.68,1.2,3.34,2.53,4.95,3.99L133.05,51.86z M138.63,57.68       c-1.49-1.78-3.05-3.44-4.67-4.97l-5.11,3.82c1.61,1.53,3.18,3.19,4.67,4.97L138.63,57.68z M138.03,67.61l5.12-3.82       c-0.75-1.16-1.54-2.3-2.39-3.43c-0.44-0.59-0.89-1.16-1.34-1.73l-5.12,3.82c0.45,0.57,0.9,1.14,1.34,1.73       C136.49,65.31,137.28,66.46,138.03,67.61z M146.7,70.1c-0.8-1.65-1.69-3.29-2.68-4.92l-5.12,3.82       c0.99,1.62,1.88,3.27,2.68,4.92L146.7,70.1z M149.54,77.2c-0.61-1.92-1.35-3.85-2.22-5.77l-5.11,3.82       c0.87,1.93,1.61,3.86,2.22,5.77L149.54,77.2z M151.04,83.26c-0.33-1.86-0.78-3.74-1.37-5.64l-5.11,3.82       c0.59,1.9,1.04,3.78,1.37,5.64L151.04,83.26z M151.67,89.97c-0.01-1.95-0.18-3.97-0.51-6.03l-5.11,3.82       c0.33,2.06,0.5,4.08,0.51,6.03L151.67,89.97z M144.83,104.05c-0.71,1.89-1.65,3.63-2.81,5.18l5.11-3.82       c1.17-1.55,2.1-3.29,2.82-5.18L144.83,104.05z M146.12,99.24c-0.26,1.55-0.65,3.04-1.16,4.45l5.11-3.82       c0.51-1.41,0.89-2.9,1.16-4.45L146.12,99.24z M151.33,94.84c0.2-1.32,0.31-2.69,0.34-4.1l-5.11,3.82       c-0.03,1.4-0.14,2.77-0.33,4.09L151.33,94.84z M106.82,40.2c-2.03,0.01-3.99,0.26-5.84,0.78l-5.11,3.82       c1.85-0.51,3.81-0.77,5.84-0.78L106.82,40.2z"/></g><g><ellipse transform="matrix(0.8009 -0.5988 0.5988 0.8009 -26.5521 83.4805)" class="st1" cx="112.26" cy="81.67" rx="27.07" ry="40.65"/></g><g class="st10"><path class="st6" d="M111.04,47.43c3.89,1.46,7.8,3.65,11.55,6.5l-4.23,63.43c-3.75-0.82-7.61-2.37-11.38-4.57L111.04,47.43z        M127.61,58.25l-4.29,59.77c1.38,0.06,2.74,0,4.05-0.16l2.72-57.05C129.28,59.92,128.45,59.07,127.61,58.25z M143.57,85.27       c-0.84-3.37-2.09-6.8-3.75-10.2l-1.34,37.54c1.68-1.65,3.02-3.6,4.03-5.79L143.57,85.27z M92.56,100.38       c1.02,1.23,2.07,2.39,3.15,3.5l3.69-58.58c-1,0.03-1.99,0.12-2.95,0.27L92.56,100.38z M85.21,89.29       c1.11,2.16,2.38,4.31,3.82,6.42l3.13-48.96c-1.39,0.55-2.71,1.27-3.94,2.15L85.21,89.29z"/></g><g><ellipse transform="matrix(0.8009 -0.5988 0.5988 0.8009 -26.5521 83.4805)" class="st7" cx="112.26" cy="81.67" rx="21.87" ry="32.84"/></g><g><ellipse transform="matrix(0.8009 -0.5988 0.5988 0.8009 -25.9877 83.8732)" class="st1" cx="113.13" cy="81.02" rx="20.27" ry="30.43"/></g><g class="st11"><path class="st6" d="M129.37,68.88c0.11,0.14,0.21,0.29,0.32,0.43l-1.81,37.97c-1.22,0.45-2.51,0.74-3.85,0.88l3.03-42.13       C127.85,66.94,128.62,67.89,129.37,68.88z M107.56,103.31c3.76,2.47,7.68,4.07,11.42,4.67l3.12-46.76       c-3.69-3.04-7.65-5.22-11.52-6.4L107.56,103.31z M90.06,79.67l1.21-18.96C88.34,65.6,87.96,72.49,90.06,79.67z M93.45,87.8       c0.87,1.59,1.86,3.17,2.97,4.71l2.39-37.9c-1.09,0.37-2.14,0.86-3.11,1.49L93.45,87.8z"/></g><g><path class="st7" d="M124.2,79.76c-2.37-3.18-5.84-4.51-12.43-2.42l-0.29,0.09l-7.08-9.48c0.6-0.41,1.28-0.8,2.08-1.15       l2.07,1.77c1.97,1.67,3.34,1.48,4.2,0.85c0.74-0.55,1.1-1.43,0.81-2.47c-2.51-2.91-6.82-3.14-10.55-0.86l-2.64-3.53l-1.55,1.16       l2.62,3.51c-3.89,3.36-4.56,8.51-1.76,12.26c2.9,3.87,6.86,4.17,12,2.56l0.64-0.2l7.16,9.58c-0.88,0.63-1.89,1.24-3.02,1.76       l-2.05-1.76c-2-1.71-3.23-1.57-4.16-0.88c-0.85,0.64-1.08,1.47-0.85,2.5c2.63,3.2,7.37,3.19,11.47,0.24l2.96,3.95l1.55-1.16       l-3.01-4.02C126.47,88.29,127.03,83.54,124.2,79.76z M102.09,76.43c-1.89-2.53-1.27-5.19,0.8-7.25l6.64,8.88       C106.31,79.08,103.87,78.81,102.09,76.43z M120.97,90.21l-6.69-8.95c3.66-1.04,5.75-0.79,7.46,1.5       C123.6,85.26,123.2,87.98,120.97,90.21z"/></g></g><g><g><path class="st7" d="M381.81,86.38l0.05,0.02l4.45-9.82c-0.6-0.59-1.16-1.21-1.77-1.79c-0.71-0.67-0.24-1.69,0.45-1.91       l-2.64-1.2c-2.99-7.82-10.59-15.51-21.03-20.24c-10.44-4.73-21.23-5.37-29.08-2.46l-3.58-1.62c0.16,0.34,0.31,0.67,0.48,0.88       c0.66,0.87-0.37,2.05-1.34,1.62c-0.59-0.27-1.19-0.53-1.79-0.77l-4.51,9.95l0.05,0.02c-3.87,10.97,5.48,25.3,21.56,32.58       C359.18,98.95,376.12,96.53,381.81,86.38z"/></g><g><path class="st1" d="M329.38,45.84c-0.01-0.02-0.01-0.03-0.02-0.04l0.05,0.02C329.4,45.83,329.39,45.84,329.38,45.84z        M327.34,47.79c-0.02-0.01-0.04-0.02-0.06-0.02l-0.09,0.19C327.24,47.9,327.29,47.85,327.34,47.79z M373.6,88.29l-2.15,4.74       c1.35-0.41,2.62-0.91,3.81-1.51l2.15-4.74C376.23,87.37,374.95,87.88,373.6,88.29z M366.39,94.07       c1.39-0.16,2.73-0.41,4.01-0.74l2.15-4.74c-1.28,0.33-2.62,0.58-4.01,0.74L366.39,94.07z M359.18,94.17       c2.08,0.17,4.11,0.17,6.06,0.01l2.15-4.74c-1.94,0.16-3.97,0.15-6.06-0.01L359.18,94.17z M352.67,93.13       c1.72,0.41,3.43,0.71,5.1,0.9l2.15-4.74c-1.68-0.19-3.38-0.49-5.1-0.9L352.67,93.13z M346.39,91.17       c1.77,0.68,3.53,1.26,5.29,1.71l2.15-4.74c-1.75-0.46-3.52-1.03-5.29-1.71L346.39,91.17z M342.91,83.84l-2.15,4.74       c0.99,0.53,2.01,1.04,3.05,1.51c0.55,0.25,1.09,0.48,1.64,0.71l2.15-4.74c-0.55-0.22-1.09-0.46-1.64-0.71       C344.92,84.87,343.9,84.37,342.91,83.84z M335.74,85.47c1.22,0.86,2.5,1.69,3.85,2.46l2.15-4.74       c-1.35-0.77-2.63-1.59-3.85-2.46L335.74,85.47z M330.92,81.52c1.19,1.13,2.48,2.22,3.86,3.25l2.15-4.74       c-1.38-1.03-2.67-2.12-3.86-3.25L330.92,81.52z M327.47,77.78c0.96,1.2,2.03,2.36,3.2,3.49l2.15-4.74       c-1.17-1.13-2.23-2.29-3.2-3.49L327.47,77.78z M324.38,73.24c0.77,1.39,1.69,2.77,2.73,4.11l2.15-4.74       c-1.05-1.34-1.96-2.71-2.73-4.11L324.38,73.24z M323.72,60.49c-0.23-1.63-0.25-3.24-0.03-4.81l-2.15,4.74       c-0.22,1.57-0.21,3.18,0.03,4.81L323.72,60.49z M324.69,64.43c-0.42-1.21-0.73-2.43-0.93-3.63l-2.15,4.74       c0.19,1.21,0.5,2.42,0.93,3.64L324.69,64.43z M322.71,69.63c0.38,1.02,0.84,2.04,1.37,3.06l2.15-4.74       c-0.53-1.01-0.99-2.03-1.37-3.06L322.71,69.63z M375.99,91.13c1.44-0.8,2.74-1.76,3.87-2.86l2.15-4.74       c-1.12,1.1-2.42,2.05-3.86,2.85L375.99,91.13z"/></g><g><ellipse transform="matrix(0.4126 -0.9109 0.9109 0.4126 151.0168 361.4958)" class="st1" cx="355.79" cy="63.66" rx="22.07" ry="33.14"/></g><g class="st10"><path class="st6" d="M370.13,87.63c-3.35,0.49-7.01,0.46-10.8-0.1L337.4,40.57c3-0.89,6.36-1.3,9.93-1.21L370.13,87.63z        M354.04,86.42l-20.45-44.37c-1.01,0.5-1.96,1.07-2.83,1.71l20.5,41.81C352.19,85.89,353.12,86.17,354.04,86.42z M332.01,73.41       c1.93,2.07,4.17,4.03,6.69,5.81l-13.81-27.33c-0.55,1.84-0.74,3.76-0.6,5.72L332.01,73.41z M362.5,42.54       c-1.21-0.47-2.42-0.89-3.63-1.26l20.41,43.28c0.7-0.41,1.37-0.87,2-1.35L362.5,42.54z M372.11,47.58       c-1.64-1.11-3.4-2.14-5.25-3.08l17.03,36.19c0.77-0.94,1.43-1.97,1.96-3.09L372.11,47.58z"/></g><g><ellipse transform="matrix(0.4126 -0.9109 0.9109 0.4126 151.0168 361.4958)" class="st7" cx="355.79" cy="63.66" rx="17.83" ry="26.78"/></g><g><ellipse transform="matrix(0.4126 -0.9109 0.9109 0.4126 150.0643 361.6373)" class="st1" cx="355.42" cy="64.47" rx="16.53" ry="24.81"/></g><g class="st11"><path class="st6" d="M348.6,79.52c-0.13-0.06-0.27-0.12-0.4-0.18l-13.64-27.82c0.69-0.8,1.5-1.52,2.4-2.14l14.41,31.28       C350.45,80.31,349.53,79.94,348.6,79.52z M350.63,46.35c-3.66-0.28-7.09,0.12-9.99,1.16l16.17,34.62       c3.83,0.72,7.51,0.72,10.75,0.04L350.63,46.35z M372.43,56.35l6.6,14.02C379.19,65.72,376.75,60.66,372.43,56.35z        M366.81,51.88c-1.25-0.79-2.58-1.53-3.98-2.19l13.21,28.01c0.64-0.69,1.19-1.46,1.63-2.29L366.81,51.88z"/></g><g><path class="st7" d="M348.01,69.72c2.95,1.33,5.95,0.92,9.83-3.17l0.17-0.18l8.79,3.98c-0.27,0.52-0.6,1.07-1.03,1.64       l-2.18-0.45c-2.06-0.41-2.97,0.26-3.33,1.05c-0.31,0.68-0.23,1.46,0.4,2.08c2.94,1.09,6.11-0.44,7.87-3.53l3.27,1.48l0.65-1.44       l-3.26-1.47c1.46-3.93-0.09-7.87-3.57-9.45c-3.59-1.63-6.54-0.28-9.58,2.89l-0.38,0.39l-8.88-4.02       c0.38-0.8,0.86-1.63,1.47-2.44l2.16,0.45c2.1,0.43,2.92-0.15,3.31-1.01c0.36-0.79,0.19-1.47-0.38-2.12       c-3.14-1.25-6.52,0.62-8.28,4.34l-3.67-1.66l-0.65,1.44l3.73,1.69C343.04,64.52,344.51,68.14,348.01,69.72z M365.11,63.4       c2.34,1.06,2.95,3.2,2.28,5.49l-8.24-3.73C361.05,63.17,362.9,62.4,365.11,63.4z M346.21,60.99l8.3,3.76       c-2.21,2.18-3.8,2.82-5.91,1.87C346.28,65.56,345.49,63.46,346.21,60.99z"/></g></g><g><g><path class="st7" d="M446.72,112.22l0.06-0.05l-10.23-10.48c-1.04,0.47-2.11,0.87-3.14,1.36c-1.2,0.57-2.26-0.53-2.2-1.51       l-2.82,2.75c-11.38-0.07-24.87,5.75-36.01,16.63s-17.28,24.23-17.48,35.61l-3.82,3.73c0.52-0.03,1-0.07,1.36-0.17       c1.43-0.4,2.42,1.49,1.39,2.49c-0.63,0.62-1.26,1.24-1.86,1.89l10.38,10.62l0.06-0.05c11.98,10.32,34.74,5.56,51.91-11.2       C451.46,147.08,456.76,124.44,446.72,112.22z"/></g><g><path class="st1" d="M369.49,158.57c-0.02,0-0.04,0-0.07,0l0.05-0.05C369.48,158.54,369.49,158.56,369.49,158.57z        M370.95,162.13c-0.02,0.02-0.04,0.04-0.06,0.06l0.2,0.21C371.04,162.31,370.99,162.22,370.95,162.13z M445.08,123.55       l4.94,5.06c0.15-1.91,0.14-3.77-0.03-5.57l-4.94-5.06C445.22,119.78,445.23,121.64,445.08,123.55z M448.83,135.54       c0.48-1.84,0.83-3.66,1.04-5.44l-4.94-5.06c-0.21,1.78-0.57,3.6-1.05,5.44L448.83,135.54z M445.4,144.72       c1.24-2.56,2.25-5.12,3.01-7.66l-4.94-5.06c-0.76,2.54-1.77,5.11-3.01,7.66L445.4,144.72z M440.86,152.45       c1.37-1.98,2.59-3.99,3.66-6.02l-4.94-5.06c-1.07,2.03-2.3,4.04-3.66,6.02L440.86,152.45z M435.28,159.43       c1.74-1.9,3.34-3.85,4.78-5.85l-4.94-5.06c-1.45,2-3.04,3.95-4.78,5.85L435.28,159.43z M424.28,160.21l4.94,5.06       c1.16-0.99,2.3-2.03,3.42-3.12c0.58-0.57,1.15-1.15,1.7-1.73l-4.94-5.06c-0.56,0.58-1.12,1.16-1.7,1.73       C426.58,158.18,425.44,159.22,424.28,160.21z M422.81,170.1c1.7-1.12,3.37-2.34,5.01-3.66l-4.94-5.06       c-1.64,1.32-3.31,2.54-5.01,3.66L422.81,170.1z M415.42,174.25c2.02-0.95,4.03-2.04,6.02-3.28l-4.94-5.06       c-1.99,1.24-4,2.33-6.02,3.28L415.42,174.25z M408.99,176.78c1.99-0.63,4-1.4,6-2.32l-4.94-5.06c-2,0.92-4.01,1.69-6,2.32       L408.99,176.78z M401.7,178.44c2.14-0.29,4.34-0.77,6.55-1.43l-4.94-5.06c-2.21,0.66-4.4,1.14-6.55,1.43L401.7,178.44z        M385.24,172.98c-2.18-0.51-4.23-1.28-6.1-2.34l4.94,5.06c1.87,1.06,3.92,1.83,6.1,2.34L385.24,172.98z M390.71,173.7       c-1.75-0.06-3.44-0.27-5.06-0.62l4.94,5.06c1.62,0.35,3.31,0.56,5.06,0.62L390.71,173.7z M396.31,178.78       c1.48,0.02,3-0.05,4.55-0.23l-4.94-5.06c-1.55,0.18-3.07,0.25-4.55,0.23L396.31,178.78z M449.86,121.94       c-0.31-2.23-0.87-4.34-1.71-6.31l-4.94-5.06c0.83,1.96,1.4,4.08,1.7,6.3L449.86,121.94z"/></g><g><ellipse transform="matrix(0.7154 -0.6987 0.6987 0.7154 21.6931 321.1518)" class="st1" cx="405.1" cy="133.95" rx="45.04" ry="30"/></g><g class="st10"><path class="st6" d="M442.53,127.63c-1.04,4.48-2.88,9.1-5.46,13.63l-70.3,4.57c0.36-4.24,1.49-8.7,3.37-13.17L442.53,127.63z        M433.05,147.4l-66.28,3.97c0.14,1.53,0.39,3.01,0.77,4.43l63.07-5.3C431.46,149.48,432.28,148.45,433.05,147.4z        M405.69,168.86c3.58-1.41,7.17-3.29,10.66-5.6l-41.43,3.99c2.05,1.6,4.39,2.79,6.94,3.59L405.69,168.86z M381.67,115.02       c-1.2,1.3-2.33,2.62-3.39,3.97l64.89-4.46c-0.18-1.1-0.42-2.16-0.73-3.2L381.67,115.02z M392.79,105.34       c-2.22,1.53-4.39,3.25-6.49,5.13l54.24-3.68c-0.81-1.45-1.79-2.79-2.94-4.01L392.79,105.34z"/></g><g><ellipse transform="matrix(0.7154 -0.6987 0.6987 0.7154 21.6931 321.1518)" class="st7" cx="405.1" cy="133.95" rx="36.39" ry="24.24"/></g><g><ellipse transform="matrix(0.7154 -0.6987 0.6987 0.7154 21.3296 321.9871)" class="st1" cx="405.94" cy="134.81" rx="33.72" ry="22.46"/></g><g class="st11"><path class="st6" d="M421.63,150.88c-0.14,0.14-0.29,0.28-0.43,0.41l-41.97,3.53c-0.67-1.27-1.18-2.65-1.53-4.1l46.72-2.8       C423.55,148.93,422.62,149.92,421.63,150.88z M380.63,131.93c-2.17,4.49-3.35,9.03-3.47,13.22l51.82-3.37       c2.8-4.5,4.62-9.16,5.36-13.59L380.63,131.93z M404.06,109.26l21.01-1.43C419.27,105.33,411.65,105.92,404.06,109.26z        M395.63,114.17c-1.62,1.19-3.21,2.51-4.74,3.95l41.99-2.88c-0.56-1.15-1.26-2.22-2.09-3.2L395.63,114.17z"/></g><g><path class="st7" d="M408.93,146.79c3.14-3.07,4.1-7.08,0.85-14.01l-0.15-0.31l9.38-9.16c0.53,0.6,1.06,1.29,1.57,2.12       l-1.65,2.53c-1.54,2.41-1.14,3.89-0.32,4.73c0.71,0.73,1.73,1.01,2.84,0.53c2.83-3.18,2.46-7.95-0.59-11.71l3.49-3.41       l-1.5-1.53l-3.48,3.39c-4.26-3.79-10.01-3.78-13.73-0.15c-3.83,3.74-3.58,8.14-1.07,13.55l0.31,0.67l-9.48,9.26       c-0.82-0.88-1.64-1.9-2.37-3.06l1.63-2.51c1.58-2.44,1.26-3.77,0.36-4.69c-0.82-0.84-1.77-0.97-2.87-0.56       c-3.14,3.36-2.44,8.56,1.41,12.63l-3.91,3.82l1.5,1.53l3.98-3.89C399.89,150.51,405.19,150.44,408.93,146.79z M409.37,122.01       c2.5-2.44,5.51-2.15,8.08-0.17l-8.79,8.59C407.07,127.03,407.01,124.32,409.37,122.01z M396.98,144.75l8.86-8.65       c1.67,3.87,1.7,6.21-0.56,8.41C402.8,146.93,399.75,146.89,396.98,144.75z"/></g></g><g><g><path class="st7" d="M320.28,119.77l0.07-0.03l-6.24-13.25c-1.14,0.1-2.28,0.14-3.41,0.26c-1.32,0.14-1.96-1.24-1.58-2.15       l-3.57,1.68c-10.73-3.79-25.39-2.71-39.47,3.92c-14.09,6.63-24.27,17.24-28.18,27.92l-4.83,2.28c0.5,0.14,0.96,0.26,1.34,0.29       c1.48,0.09,1.8,2.2,0.5,2.81c-0.8,0.38-1.6,0.76-2.38,1.17l6.32,13.44l0.07-0.03c7.94,13.68,31,16.63,52.71,6.42       C313.33,154.26,325.76,134.6,320.28,119.77z"/></g><g><path class="st1" d="M232.12,138.27c-0.02-0.01-0.04-0.01-0.06-0.02l0.07-0.03C232.12,138.23,232.12,138.25,232.12,138.27z        M232.33,142.1c-0.02,0.01-0.05,0.02-0.08,0.04l0.12,0.26C232.36,142.3,232.35,142.2,232.33,142.1z M315.01,129.94l3.01,6.4       c0.77-1.75,1.37-3.52,1.79-5.27l-3.01-6.4C316.38,126.42,315.77,128.18,315.01,129.94z M314.63,142.49       c1.06-1.58,1.98-3.18,2.77-4.8l-3.01-6.4c-0.79,1.62-1.71,3.22-2.77,4.8L314.63,142.49z M308.38,150.04       c2.01-2.01,3.81-4.1,5.35-6.25l-3.01-6.4c-1.55,2.15-3.34,4.25-5.35,6.25L308.38,150.04z M301.56,155.86       c1.94-1.42,3.75-2.92,5.43-4.48l-3.01-6.4c-1.68,1.56-3.49,3.06-5.43,4.48L301.56,155.86z M294,160.63       c2.26-1.22,4.41-2.55,6.43-3.96l-3.01-6.4c-2.02,1.41-4.17,2.74-6.43,3.96L294,160.63z M283.35,157.76l3.01,6.4       c1.42-0.55,2.84-1.16,4.25-1.83c0.74-0.35,1.46-0.71,2.18-1.08l-3.01-6.4c-0.72,0.37-1.44,0.73-2.18,1.08       C286.19,156.6,284.77,157.21,283.35,157.76z M278.72,166.62c1.97-0.5,3.95-1.1,5.93-1.82l-3.01-6.4       c-1.98,0.71-3.96,1.32-5.93,1.82L278.72,166.62z M270.38,168.13c2.22-0.24,4.48-0.61,6.76-1.12l-3.01-6.4       c-2.28,0.52-4.54,0.89-6.76,1.12L270.38,168.13z M263.47,168.41c2.09,0.06,4.23-0.02,6.43-0.23l-3.01-6.4       c-2.19,0.21-4.34,0.29-6.43,0.23L263.47,168.41z M256.05,167.59c2.12,0.43,4.35,0.69,6.66,0.79l-3.01-6.4       c-2.31-0.1-4.54-0.36-6.66-0.79L256.05,167.59z M242.28,157.04c-1.89-1.2-3.57-2.6-5-4.21l3.01,6.39       c1.42,1.61,3.11,3.01,5,4.21L242.28,157.04z M247.22,159.51c-1.63-0.63-3.16-1.38-4.58-2.25l3.01,6.4       c1.42,0.86,2.95,1.61,4.58,2.25L247.22,159.51z M250.84,166.14c1.39,0.51,2.85,0.93,4.37,1.28l-3.01-6.4       c-1.52-0.34-2.98-0.77-4.37-1.27L250.84,166.14z M320.06,129.98c0.44-2.2,0.6-4.39,0.45-6.52l-3.01-6.4       c0.15,2.13-0.01,4.31-0.45,6.51L320.06,129.98z"/></g><g><ellipse transform="matrix(0.9048 -0.4258 0.4258 0.9048 -27.8676 128.6462)" class="st1" cx="273.83" cy="126.66" rx="45.04" ry="30"/></g><g class="st10"><path class="st6" d="M311.27,132.95c-2.45,3.89-5.7,7.66-9.62,11.09l-67.91-18.71c1.72-3.89,4.26-7.73,7.5-11.34L311.27,132.95       z M295.83,148.53l-63.92-17.96c-0.37,1.49-0.61,2.97-0.73,4.43l61.33,15.65C293.65,149.97,294.76,149.26,295.83,148.53z        M262.96,159.85c3.84-0.16,7.85-0.76,11.91-1.8l-40.45-9.81c1.42,2.19,3.24,4.08,5.39,5.66L262.96,159.85z M257.9,101.1       c-1.56,0.83-3.06,1.72-4.5,2.64l62.77,17.04c0.19-1.09,0.31-2.18,0.36-3.26L257.9,101.1z M271.57,95.6       c-2.6,0.72-5.21,1.63-7.82,2.72l52.45,14.29c-0.29-1.63-0.78-3.22-1.46-4.75L271.57,95.6z"/></g><g><ellipse transform="matrix(0.9048 -0.4258 0.4258 0.9048 -27.8676 128.6462)" class="st7" cx="273.83" cy="126.66" rx="36.39" ry="24.24"/></g><g><ellipse transform="matrix(0.9048 -0.4258 0.4258 0.9048 -28.2839 128.9691)" class="st1" cx="274.34" cy="127.75" rx="33.72" ry="22.46"/></g><g class="st11"><path class="st6" d="M283.9,148.07c-0.18,0.09-0.36,0.17-0.54,0.25l-40.81-10.41c-0.22-1.42-0.25-2.89-0.1-4.37l45.06,12.66       C286.35,146.86,285.15,147.49,283.9,148.07z M251.38,116.74c-3.52,3.54-6.13,7.44-7.61,11.36l50.07,13.79       c4.12-3.33,7.36-7.14,9.51-11.08L251.38,116.74z M280.94,103l20.32,5.53C296.59,104.26,289.2,102.32,280.94,103z        M271.36,104.88c-1.92,0.59-3.85,1.32-5.77,2.18l40.61,11.03c-0.16-1.27-0.46-2.51-0.92-3.71L271.36,104.88z"/></g><g><path class="st7" d="M273.24,140.05c3.98-1.87,6.19-5.34,5.39-12.96l-0.04-0.34l11.86-5.58c0.31,0.74,0.58,1.57,0.79,2.51       l-2.39,1.85c-2.25,1.77-2.36,3.3-1.85,4.37c0.43,0.92,1.31,1.52,2.51,1.43c3.72-2.08,4.93-6.71,3.28-11.26l4.42-2.08       l-0.91-1.94l-4.4,2.07c-2.78-4.97-8.22-6.85-12.92-4.64c-4.85,2.28-6.05,6.52-5.45,12.46l0.08,0.73l-11.99,5.64       c-0.49-1.1-0.93-2.33-1.23-3.67l2.37-1.84c2.3-1.79,2.42-3.15,1.88-4.32c-0.5-1.07-1.35-1.49-2.53-1.47       c-4.06,2.14-5.1,7.29-2.81,12.4l-4.95,2.33l0.91,1.94l5.03-2.37C263.48,140.61,268.51,142.27,273.24,140.05z M281.78,116.78       c3.16-1.49,5.91-0.23,7.69,2.48l-11.12,5.23C277.96,120.78,278.79,118.19,281.78,116.78z M262.62,134.21l11.2-5.27       c0.31,4.21-0.43,6.42-3.28,7.76C267.41,138.17,264.54,137.13,262.62,134.21z"/></g></g><g><g><path class="st7" d="M168.11,107.4l-0.07-0.04l-8,12.27c0.68,0.91,1.31,1.87,2.01,2.77c0.81,1.04-0.02,2.32-1,2.47l3.3,2.15       c2.41,11.12,11.03,23.02,24.08,31.53c13.04,8.5,27.42,11.59,38.56,9.31l4.48,2.92c-0.14-0.5-0.28-0.96-0.46-1.29       c-0.71-1.31,0.93-2.68,2.13-1.9c0.74,0.48,1.49,0.96,2.25,1.41l8.11-12.44l-0.07-0.04c7.46-13.94-2.14-35.12-22.24-48.22       C201.1,95.18,177.85,94.94,168.11,107.4z"/></g><g><path class="st1" d="M230.17,172.68c0.01,0.02,0.01,0.04,0.02,0.06l-0.06-0.04C230.14,172.7,230.16,172.69,230.17,172.68z        M233.33,170.49c0.02,0.01,0.05,0.03,0.07,0.04l0.16-0.24C233.48,170.35,233.41,170.42,233.33,170.49z M179.53,106.54       l3.86-5.93c-1.9,0.27-3.71,0.68-5.43,1.24l-3.86,5.93C175.82,107.22,177.64,106.81,179.53,106.54z M190.41,100.26       c-1.9-0.07-3.75-0.02-5.54,0.17l-3.86,5.93c1.79-0.18,3.64-0.23,5.54-0.16L190.41,100.26z M200.12,101.61       c-2.77-0.66-5.49-1.08-8.13-1.27l-3.86,5.93c2.64,0.19,5.37,0.61,8.13,1.27L200.12,101.61z M208.65,104.36       c-2.23-0.9-4.46-1.66-6.67-2.27l-3.86,5.93c2.21,0.61,4.44,1.36,6.67,2.27L208.65,104.36z M216.68,108.28       c-2.23-1.28-4.49-2.42-6.75-3.39l-3.86,5.93c2.26,0.98,4.52,2.11,6.75,3.39L216.68,108.28z M219.84,118.85l3.86-5.93       c-1.22-0.92-2.48-1.81-3.79-2.66c-0.68-0.44-1.37-0.87-2.06-1.29l-3.86,5.93c0.69,0.42,1.38,0.84,2.06,1.29       C217.36,117.04,218.62,117.93,219.84,118.85z M229.81,118.13c-1.46-1.41-3.02-2.78-4.66-4.09l-3.86,5.93       c1.65,1.31,3.2,2.68,4.66,4.09L229.81,118.13z M235.48,124.44c-1.37-1.76-2.87-3.49-4.51-5.16l-3.86,5.93       c1.64,1.67,3.14,3.4,4.51,5.16L235.48,124.44z M239.34,130.17c-1.05-1.81-2.24-3.59-3.57-5.35l-3.86,5.93       c1.33,1.75,2.53,3.54,3.57,5.35L239.34,130.17z M242.55,136.91c-0.75-2.03-1.7-4.06-2.83-6.08l-3.86,5.93       c1.13,2.02,2.07,4.05,2.83,6.08L242.55,136.91z M240.8,154.17c-0.02,2.24-0.33,4.4-0.95,6.46l3.86-5.92       c0.62-2.06,0.93-4.23,0.96-6.47L240.8,154.17z M240.31,148.68c0.32,1.72,0.48,3.41,0.49,5.07l3.86-5.93       c-0.01-1.66-0.18-3.36-0.49-5.08L240.31,148.68z M244.05,142.11c-0.3-1.45-0.7-2.92-1.21-4.39l-3.86,5.93       c0.51,1.47,0.91,2.94,1.21,4.39L244.05,142.11z M176.91,102.22c-2.11,0.78-4.05,1.8-5.78,3.04l-3.86,5.92       c1.73-1.24,3.67-2.25,5.78-3.04L176.91,102.22z"/></g><g><ellipse transform="matrix(0.5461 -0.8377 0.8377 0.5461 -29.9957 231.2329)" class="st1" cx="198.38" cy="143.3" rx="30" ry="45.04"/></g><g class="st10"><path class="st6" d="M184.06,108.14c4.6,0.04,9.51,0.83,14.49,2.36l19.77,67.61c-4.21,0.58-8.82,0.44-13.59-0.42L184.06,108.14       z M205.43,113.08l18.31,63.82c1.46-0.47,2.85-1.04,4.15-1.71l-18.91-60.4C207.8,114.18,206.62,113.61,205.43,113.08z        M232.33,135.11c-2.16-3.18-4.77-6.28-7.79-9.19l12.91,39.57c1.11-2.35,1.77-4.9,1.99-7.56L232.33,135.11z M185.01,170.28       c1.53,0.89,3.07,1.7,4.61,2.44l-18.48-62.36c-1.03,0.41-2.02,0.88-2.96,1.41L185.01,170.28z M173.14,161.54       c1.98,1.83,4.12,3.58,6.42,5.22l-15.41-52.14c-1.24,1.11-2.33,2.35-3.28,3.74L173.14,161.54z"/></g><g><ellipse transform="matrix(0.5461 -0.8377 0.8377 0.5461 -29.9957 231.2329)" class="st7" cx="198.38" cy="143.3" rx="24.24" ry="36.39"/></g><g><ellipse transform="matrix(0.5461 -0.8377 0.8377 0.5461 -28.849 231.3262)" class="st1" cx="199.04" cy="142.28" rx="22.46" ry="33.72"/></g><g class="st11"><path class="st6" d="M211.31,123.47c0.17,0.11,0.33,0.22,0.5,0.33L224.39,164c-1.1,0.94-2.33,1.73-3.67,2.38l-12.91-44.99       C208.99,122.02,210.15,122.72,211.31,123.47z M201.74,167.61c4.86,1.14,9.55,1.3,13.66,0.5l-14.57-49.84       c-5-1.76-9.95-2.51-14.43-2.27L201.74,167.61z M174.52,149.68l-5.97-20.19C167.36,135.7,169.6,143,174.52,149.68z        M181.15,156.84c1.51,1.32,3.15,2.59,4.89,3.76l-11.96-40.35c-1,0.8-1.89,1.71-2.67,2.73L181.15,156.84z"/></g><g><path class="st7" d="M210.08,136.76c-3.68-2.4-7.8-2.46-13.86,2.22l-0.27,0.21l-10.98-7.16c0.47-0.65,1.03-1.32,1.73-1.99       l2.83,1.06c2.69,0.98,4.05,0.27,4.69-0.72c0.56-0.85,0.6-1.91-0.1-2.88c-3.72-2.07-8.3-0.67-11.3,3.12l-4.09-2.67l-1.17,1.8       l4.07,2.65c-2.77,4.98-1.51,10.6,2.84,13.43c4.49,2.93,8.73,1.72,13.46-1.91l0.59-0.45l11.1,7.24       c-0.68,0.99-1.49,2.01-2.47,2.98l-2.81-1.05c-2.73-1.01-3.96-0.41-4.66,0.67c-0.64,0.99-0.56,1.94,0.07,2.93       c3.96,2.33,8.88,0.51,12.02-4.12l4.58,2.99l1.17-1.8l-4.66-3.04C215.69,144.77,214.46,139.61,210.08,136.76z M185.8,141.72       c-2.93-1.91-3.3-4.91-1.93-7.85l10.3,6.71C191.21,142.87,188.57,143.52,185.8,141.72z M210.7,148.87l-10.37-6.76       c3.42-2.48,5.69-3.01,8.33-1.29C211.55,142.71,212.18,145.69,210.7,148.87z"/></g></g><g><g><path class="st7" d="M66.91,134.93l-0.06-0.03l-5.42,11.97c0.73,0.72,1.42,1.48,2.16,2.18c0.86,0.82,0.3,2.06-0.55,2.33       l3.22,1.46c3.65,9.53,12.92,18.91,25.65,24.68s25.89,6.54,35.47,3l4.37,1.98c-0.2-0.42-0.38-0.81-0.58-1.08       c-0.8-1.06,0.46-2.51,1.63-1.97c0.72,0.33,1.45,0.65,2.19,0.94l5.5-12.14l-0.06-0.03c4.72-13.38-6.68-30.85-26.29-39.73       S73.85,122.55,66.91,134.93z"/></g><g><path class="st1" d="M130.84,184.36c0.01,0.02,0.02,0.04,0.03,0.05l-0.06-0.03C130.82,184.38,130.83,184.37,130.84,184.36z        M133.34,181.99c0.02,0.01,0.05,0.02,0.07,0.03l0.11-0.24C133.46,181.85,133.4,181.92,133.34,181.99z M76.92,132.61l2.62-5.78       c-1.64,0.5-3.2,1.11-4.64,1.84l-2.62,5.78C73.72,133.72,75.28,133.11,76.92,132.61z M85.71,125.56c-1.69,0.2-3.33,0.5-4.89,0.9       l-2.62,5.78c1.56-0.4,3.2-0.7,4.89-0.9L85.71,125.56z M94.51,125.44c-2.54-0.21-5.02-0.21-7.39-0.02l-2.62,5.78       c2.37-0.19,4.84-0.19,7.39,0.02L94.51,125.44z M102.45,126.71c-2.1-0.5-4.18-0.86-6.22-1.1l-2.62,5.78       c2.04,0.24,4.12,0.6,6.22,1.1L102.45,126.71z M110.1,129.09c-2.15-0.83-4.31-1.53-6.45-2.09l-2.62,5.78       c2.14,0.56,4.3,1.25,6.45,2.09L110.1,129.09z M114.34,138.03l2.62-5.78c-1.2-0.65-2.45-1.26-3.72-1.84       c-0.67-0.3-1.33-0.59-2-0.86l-2.62,5.78c0.67,0.27,1.33,0.56,2,0.86C111.9,136.77,113.14,137.39,114.34,138.03z M123.09,136.04       c-1.49-1.05-3.05-2.05-4.69-3l-2.62,5.78c1.64,0.94,3.21,1.94,4.69,3L123.09,136.04z M128.97,140.86       c-1.45-1.38-3.02-2.7-4.7-3.96l-2.62,5.78c1.68,1.26,3.25,2.59,4.7,3.96L128.97,140.86z M133.18,145.42       c-1.18-1.46-2.48-2.88-3.9-4.25l-2.62,5.78c1.42,1.37,2.72,2.8,3.9,4.25L133.18,145.42z M136.95,150.96       c-0.94-1.7-2.06-3.37-3.33-5.01l-2.62,5.78c1.28,1.63,2.39,3.31,3.33,5.01L136.95,150.96z M137.75,166.5       c0.28,1.99,0.31,3.95,0.03,5.86l2.62-5.78c0.27-1.91,0.25-3.88-0.03-5.86L137.75,166.5z M136.56,161.7       c0.52,1.48,0.89,2.96,1.13,4.43l2.62-5.78c-0.23-1.47-0.61-2.95-1.13-4.43L136.56,161.7z M138.98,155.36       c-0.46-1.25-1.02-2.49-1.67-3.73l-2.62,5.78c0.65,1.24,1.21,2.48,1.67,3.73L138.98,155.36z M74.01,129.14       c-1.76,0.98-3.35,2.14-4.71,3.48l-2.62,5.78c1.37-1.34,2.95-2.5,4.71-3.48L74.01,129.14z"/></g><g><ellipse transform="matrix(0.4126 -0.9109 0.9109 0.4126 -90.203 185.4019)" class="st1" cx="98.65" cy="162.64" rx="26.91" ry="40.41"/></g><g class="st10"><path class="st6" d="M81.16,133.41c4.09-0.59,8.55-0.56,13.17,0.12l26.75,57.27c-3.66,1.08-7.76,1.59-12.11,1.48L81.16,133.41z        M100.78,134.88l24.94,54.11c1.23-0.61,2.38-1.31,3.45-2.08l-25-50.99C103.03,135.53,101.9,135.19,100.78,134.88z        M127.64,150.75c-2.35-2.53-5.08-4.92-8.16-7.09L136.32,177c0.67-2.24,0.9-4.58,0.73-6.97L127.64,150.75z M90.47,188.39       c1.48,0.58,2.95,1.09,4.42,1.54L70,137.14c-0.86,0.51-1.67,1.06-2.44,1.65L90.47,188.39z M78.75,182.25       c2,1.35,4.15,2.61,6.41,3.76l-20.77-44.14c-0.94,1.15-1.75,2.41-2.4,3.76L78.75,182.25z"/></g><g><ellipse transform="matrix(0.4126 -0.9109 0.9109 0.4126 -90.203 185.4019)" class="st7" cx="98.65" cy="162.64" rx="21.75" ry="32.65"/></g><g><ellipse transform="matrix(0.4126 -0.9109 0.9109 0.4126 -89.0414 185.2293)" class="st1" cx="99.09" cy="161.65" rx="20.15" ry="30.26"/></g><g class="st11"><path class="st6" d="M107.41,143.29c0.16,0.07,0.32,0.15,0.49,0.23l16.64,33.93c-0.84,0.98-1.83,1.85-2.93,2.61l-17.58-38.14       C105.15,142.33,106.28,142.78,107.41,143.29z M104.94,183.74c4.46,0.35,8.64-0.14,12.18-1.41L97.4,140.11       c-4.67-0.88-9.16-0.87-13.1-0.05L104.94,183.74z M78.35,171.55l-8.04-17.09C70.1,160.13,73.08,166.3,78.35,171.55z M85.21,177       c1.52,0.97,3.14,1.86,4.85,2.67l-16.1-34.15c-0.78,0.85-1.45,1.78-1.99,2.79L85.21,177z"/></g><g><path class="st7" d="M108.13,155.25c-3.59-1.63-7.25-1.12-11.99,3.86l-0.21,0.22l-10.72-4.85c0.32-0.64,0.73-1.31,1.26-2       l2.65,0.55c2.52,0.51,3.62-0.31,4.06-1.27c0.38-0.83,0.28-1.78-0.48-2.54c-3.59-1.33-7.45,0.54-9.6,4.31l-3.99-1.81l-0.79,1.75       l3.97,1.8c-1.78,4.79,0.11,9.6,4.35,11.52c4.38,1.98,7.97,0.34,11.68-3.53l0.46-0.48l10.83,4.91       c-0.47,0.97-1.05,1.99-1.79,2.98l-2.63-0.55c-2.56-0.53-3.57,0.18-4.04,1.23c-0.44,0.96-0.23,1.79,0.47,2.59       c3.83,1.53,7.95-0.75,10.1-5.3l4.47,2.02l0.79-1.75l-4.55-2.06C114.19,161.58,112.4,157.18,108.13,155.25z M87.28,162.96       c-2.86-1.29-3.6-3.9-2.78-6.69l10.04,4.55C92.23,163.24,89.97,164.18,87.28,162.96z M110.33,165.9l-10.12-4.58       c2.69-2.66,4.63-3.44,7.21-2.28C110.24,160.32,111.2,162.88,110.33,165.9z"/></g></g><g><g><path class="st7" d="M139.23,140.2l-0.08-0.07l-13.49,15.9c0.8,1.41,1.52,2.87,2.35,4.27c0.96,1.62-0.44,3.27-1.85,3.32       l4.28,3.63c1.41,16.14,11.47,34.5,28.38,48.84c16.91,14.35,36.66,21.28,52.81,20.04l5.8,4.92c-0.11-0.73-0.23-1.4-0.42-1.9       c-0.76-1.97,1.79-3.62,3.35-2.3c0.96,0.81,1.93,1.62,2.93,2.39l13.68-16.13l-0.08-0.07c13.04-18.36,3.26-49.99-22.8-72.1       S155.22,124.35,139.23,140.2z"/></g><g><path class="st1" d="M215.23,243.52c0.01,0.03,0.01,0.06,0.02,0.09l-0.08-0.07C215.19,243.54,215.21,243.53,215.23,243.52z        M220.08,240.99c0.03,0.02,0.06,0.05,0.09,0.08l0.27-0.31C220.32,240.83,220.2,240.91,220.08,240.99z M155.52,141.03l6.52-7.68       c-2.73,0.04-5.37,0.3-7.89,0.79l-6.52,7.68C150.15,141.33,152.79,141.07,155.52,141.03z M172.01,134.11       c-2.67-0.44-5.3-0.69-7.85-0.76l-6.52,7.68c2.56,0.06,5.18,0.32,7.85,0.76L172.01,134.11z M185.48,137.75       c-3.79-1.42-7.56-2.51-11.26-3.25l-6.52,7.68c3.7,0.74,7.47,1.82,11.26,3.25L185.48,137.75z M197.04,143.15       c-2.99-1.67-6-3.14-9.02-4.39l-6.52,7.68c3.01,1.25,6.03,2.72,9.02,4.39L197.04,143.15z M207.69,150.14       c-2.92-2.21-5.91-4.22-8.93-6l-6.52,7.68c3.02,1.78,6.01,3.79,8.93,6L207.69,150.14z M210.26,165.63l6.52-7.68       c-1.56-1.51-3.18-2.99-4.88-4.43c-0.88-0.75-1.78-1.48-2.68-2.19l-6.52,7.68c0.9,0.71,1.79,1.43,2.68,2.19       C207.08,162.64,208.7,164.12,210.26,165.63z M224.48,166.4c-1.81-2.26-3.76-4.47-5.86-6.62l-6.52,7.68       c2.09,2.15,4.05,4.36,5.86,6.62L224.48,166.4z M231.35,176.32c-1.61-2.74-3.43-5.44-5.45-8.1l-6.52,7.68       c2.02,2.65,3.83,5.36,5.45,8.1L231.35,176.32z M235.79,185.11c-1.16-2.74-2.52-5.48-4.09-8.19l-6.52,7.68       c1.57,2.71,2.94,5.45,4.09,8.19L235.79,185.11z M239.11,195.21c-0.7-3-1.67-6.04-2.9-9.09l-6.52,7.68       c1.23,3.05,2.2,6.09,2.91,9.09L239.11,195.21z M233.56,219.28c-0.43,3.16-1.26,6.16-2.5,8.96l6.51-7.67       c1.25-2.8,2.07-5.8,2.51-8.96L233.56,219.28z M233.85,211.43c0.14,2.48,0.07,4.91-0.21,7.26l6.52-7.68       c0.28-2.35,0.35-4.77,0.21-7.26L233.85,211.43z M240.3,202.82c-0.16-2.1-0.47-4.25-0.93-6.42l-6.52,7.68       c0.46,2.17,0.77,4.31,0.93,6.42L240.3,202.82z M152.59,134.46c-3.12,0.73-6.04,1.81-8.71,3.26l-6.51,7.68       c2.67-1.45,5.59-2.53,8.71-3.26L152.59,134.46z"/></g><g><ellipse transform="matrix(0.647 -0.7625 0.7625 0.647 -87.7197 203.1919)" class="st1" cx="175.58" cy="196.33" rx="42.71" ry="64.14"/></g><g class="st10"><path class="st6" d="M161.63,144.1c6.49,0.88,13.29,2.87,20.05,5.93l15.84,99.05c-6.06,0.06-12.53-0.96-19.12-3.02       L161.63,144.1z M190.93,154.9l14.46,93.44c2.15-0.4,4.21-0.96,6.17-1.68l-15.92-88.71       C194.09,156.88,192.52,155.86,190.93,154.9z M225,190.83c-2.48-4.88-5.61-9.72-9.36-14.37l11.17,58.21       c2-3.13,3.37-6.6,4.16-10.32L225,190.83z M151.86,232.06c2,1.53,4.03,2.95,6.08,4.27l-14.96-91.4       c-1.53,0.4-3.01,0.88-4.44,1.46L151.86,232.06z M136.66,217.58c2.47,2.94,5.19,5.79,8.14,8.52l-12.44-76.41       c-1.94,1.34-3.72,2.91-5.3,4.7L136.66,217.58z"/></g><g><ellipse transform="matrix(0.647 -0.7625 0.7625 0.647 -87.7197 203.1919)" class="st7" cx="175.58" cy="196.33" rx="34.51" ry="51.82"/></g><g><ellipse transform="matrix(0.647 -0.7625 0.7625 0.647 -86.3273 203.5773)" class="st1" cx="176.69" cy="195.02" rx="31.98" ry="48.02"/></g><g class="st11"><path class="st6" d="M197.38,170.63c0.22,0.18,0.43,0.37,0.64,0.56l10.59,59.03c-1.72,1.13-3.6,2.03-5.61,2.71l-10.19-65.87       C194.36,168.17,195.89,169.36,197.38,170.63z M175.97,231.28c6.66,2.48,13.25,3.55,19.21,3.15l-11.68-73.02       c-6.75-3.38-13.6-5.33-19.97-5.79L175.97,231.28z M140.72,201.08l-4.82-29.59C133.12,180.05,134.97,190.77,140.72,201.08z        M148.81,212.38c1.9,2.14,3.98,4.21,6.23,6.19l-9.68-59.14c-1.55,0.95-2.98,2.08-4.26,3.39L148.81,212.38z"/></g><g><path class="st7" d="M193.28,189.19c-4.77-4.05-10.58-4.87-19.98,0.66l-0.42,0.25l-14.24-12.08c0.77-0.83,1.69-1.68,2.79-2.5       l3.81,2c3.62,1.87,5.67,1.11,6.75-0.17c0.94-1.11,1.2-2.59,0.37-4.09c-4.89-3.6-11.6-2.43-16.53,2.39l-5.3-4.5l-1.97,2.33       l5.27,4.48c-4.8,6.54-4.02,14.7,1.62,19.48c5.82,4.94,12.02,4,19.36-0.29l0.91-0.53l14.39,12.21       c-1.14,1.28-2.47,2.58-4.03,3.77l-3.78-1.98c-3.68-1.92-5.52-1.28-6.7,0.12c-1.09,1.28-1.14,2.64-0.42,4.15       c5.18,4,12.46,2.31,17.72-3.68l5.94,5.04l1.97-2.33l-6.04-5.12C199.76,201.5,198.95,194,193.28,189.19z M158.09,191.86       c-3.79-3.22-3.79-7.53-1.32-11.43l13.34,11.32C165.52,194.45,161.67,194.89,158.09,191.86z M191.98,206.4l-13.44-11.41       c5.27-2.89,8.57-3.23,12-0.33C194.28,197.85,194.63,202.18,191.98,206.4z"/></g></g><g><g><path class="st7" d="M392.19,156.6l0.1-0.06l-10.57-17.98c-1.6,0.29-3.21,0.49-4.8,0.81c-1.85,0.38-2.94-1.5-2.52-2.84       l-4.84,2.85c-15.7-3.98-36.35-0.53-55.46,10.71c-19.11,11.24-32.16,27.61-36.31,43.27l-6.56,3.86c0.72,0.13,1.4,0.25,1.93,0.23       c2.12-0.07,2.83,2.88,1.07,3.92c-1.09,0.64-2.17,1.29-3.22,1.98l10.72,18.23l0.1-0.06c13.04,18.36,46.13,19.54,75.58,2.22       S401.89,176.92,392.19,156.6z"/></g><g><path class="st1" d="M269.6,194.34c-0.03-0.01-0.06-0.01-0.09-0.02l0.09-0.05C269.6,194.29,269.6,194.31,269.6,194.34z        M270.4,199.75c-0.03,0.02-0.07,0.04-0.1,0.06l0.21,0.35C270.47,200.03,270.43,199.89,270.4,199.75z M386.04,171.71l5.11,8.68       c0.86-2.59,1.48-5.17,1.85-7.71L387.9,164C387.53,166.54,386.9,169.12,386.04,171.71z M387.15,189.56       c1.29-2.38,2.4-4.77,3.3-7.17l-5.11-8.68c-0.9,2.39-2.01,4.79-3.3,7.17L387.15,189.56z M379.27,201.08       c2.59-3.11,4.86-6.31,6.78-9.57l-5.11-8.69c-1.92,3.25-4.18,6.46-6.78,9.56L379.27,201.08z M370.36,210.22       c2.57-2.27,4.94-4.63,7.12-7.07l-5.11-8.69c-2.17,2.43-4.55,4.8-7.12,7.07L370.36,210.22z M360.26,217.97       c3.05-2.03,5.93-4.19,8.6-6.46l-5.11-8.69c-2.68,2.27-5.55,4.43-8.6,6.46L360.26,217.97z M344.79,215.29l5.11,8.69       c1.94-0.97,3.87-2.02,5.79-3.14c1-0.59,1.98-1.19,2.94-1.81l-5.11-8.69c-0.97,0.62-1.95,1.22-2.94,1.81       C348.66,213.28,346.73,214.32,344.79,215.29z M339.38,228.46c2.73-0.97,5.46-2.08,8.18-3.35l-5.11-8.69       c-2.72,1.27-5.45,2.38-8.18,3.35L339.38,228.46z M327.75,231.68c3.11-0.62,6.27-1.45,9.44-2.48l-5.11-8.69       c-3.17,1.03-6.33,1.85-9.44,2.48L327.75,231.68z M317.99,232.98c2.97-0.19,6-0.58,9.08-1.17l-5.11-8.69       c-3.08,0.59-6.12,0.98-9.08,1.17L317.99,232.98z M307.35,232.79c3.06,0.33,6.26,0.41,9.54,0.25l-5.11-8.69       c-3.29,0.16-6.48,0.08-9.54-0.25L307.35,232.79z M286.46,219.63c-2.84-1.45-5.41-3.22-7.63-5.31l5.1,8.67       c2.23,2.1,4.8,3.87,7.64,5.32L286.46,219.63z M293.78,222.48c-2.39-0.68-4.66-1.55-6.78-2.59l5.11,8.68       c2.12,1.04,4.39,1.9,6.78,2.59L293.78,222.48z M299.78,231.41c2.04,0.54,4.17,0.95,6.36,1.24l-5.11-8.68       c-2.2-0.28-4.32-0.7-6.36-1.24L299.78,231.41z M393.21,171.1c0.34-3.18,0.28-6.3-0.21-9.3l-5.1-8.68c0.48,3,0.54,6.11,0.21,9.3       L393.21,171.1z"/></g><g><ellipse transform="matrix(0.862 -0.5069 0.5069 0.862 -42.2511 189.6812)" class="st1" cx="327.22" cy="172.43" rx="64.14" ry="42.71"/></g><g class="st10"><path class="st6" d="M381.13,176.47c-2.97,5.84-7.08,11.6-12.2,16.98l-98.74-17.66c1.94-5.74,5.03-11.52,9.15-17.06       L381.13,176.47z M361.28,200.58l-92.99-17.12c-0.33,2.16-0.48,4.29-0.45,6.38l89,14.18       C358.37,202.91,359.85,201.76,361.28,200.58z M316.14,220.91c5.43-0.73,11.03-2.1,16.65-4.11l-58.64-8.62       c2.29,2.91,5.12,5.36,8.38,7.33L316.14,220.91z M301.3,138.28c-2.1,1.38-4.11,2.83-6.04,4.33l91.23,15.97       c0.13-1.58,0.16-3.14,0.09-4.67L301.3,138.28z M319.97,128.69c-3.59,1.36-7.18,2.99-10.73,4.88l76.24,13.41       c-0.63-2.28-1.52-4.47-2.69-6.55L319.97,128.69z"/></g><g><ellipse transform="matrix(0.862 -0.5069 0.5069 0.862 -42.2511 189.6812)" class="st7" cx="327.22" cy="172.43" rx="51.82" ry="34.51"/></g><g><ellipse transform="matrix(0.862 -0.5069 0.5069 0.862 -42.8821 190.3276)" class="st1" cx="328.09" cy="173.92" rx="48.02" ry="31.98"/></g><g class="st11"><path class="st6" d="M344.31,201.48c-0.25,0.14-0.49,0.28-0.74,0.43l-59.23-9.44c-0.5-1.99-0.73-4.06-0.71-6.19l65.55,12.07       C347.62,199.44,346,200.49,344.31,201.48z M294.09,161.3c-4.53,5.47-7.72,11.34-9.3,17.1l72.79,13.02       c5.41-5.26,9.51-11.09,12.04-16.95L294.09,161.3z M334.21,137.96l29.53,5.19C356.58,137.7,345.85,135.92,334.21,137.96z        M320.88,141.87c-2.65,1.09-5.29,2.37-7.9,3.85l59.03,10.34c-0.39-1.78-0.98-3.5-1.79-5.14L320.88,141.87z"/></g><g><path class="st7" d="M328.14,191.5c5.39-3.17,8.08-8.38,5.95-19.08l-0.1-0.47l16.09-9.46c0.53,1.01,1.03,2.15,1.44,3.46       l-3.14,2.94c-2.96,2.8-2.91,4.99-2.06,6.43c0.73,1.25,2.05,1.98,3.74,1.7c5.01-3.43,6.11-10.15,3.19-16.39l5.99-3.52       l-1.55-2.63l-5.96,3.51c-4.59-6.69-12.56-8.64-18.93-4.89c-6.58,3.87-7.73,10.04-6.1,18.37l0.2,1.03l-16.27,9.57       c-0.84-1.5-1.62-3.18-2.23-5.04l3.12-2.91c3.02-2.84,3.03-4.79,2.1-6.37c-0.85-1.45-2.12-1.94-3.78-1.76       c-5.48,3.57-6.29,11-2.36,17.94l-6.71,3.95l1.55,2.63l6.83-4.02C314.37,193.57,321.73,195.27,328.14,191.5z M337.2,157.39       c4.29-2.52,8.36-1.1,11.23,2.52l-15.08,8.87C332.31,163.55,333.16,159.77,337.2,157.39z M312.31,184.6l15.2-8.94       c0.99,5.93,0.23,9.16-3.64,11.44C319.63,189.6,315.42,188.5,312.31,184.6z"/></g></g><g><g><path class="st7" d="M309.04,146.56l0.05-0.1l-18.57-9.5c-1.19,1.11-2.45,2.14-3.62,3.27c-1.36,1.31-3.28,0.32-3.65-1.04       l-2.56,5c-15.39,5.07-30.96,19.06-41.05,38.8s-12.32,40.55-7.42,56l-3.46,6.77c0.68-0.28,1.31-0.54,1.75-0.84       c1.75-1.2,3.94,0.91,3.01,2.73c-0.57,1.12-1.14,2.25-1.66,3.4l18.83,9.63l0.05-0.1c20.85,8.49,49.41-8.27,64.97-38.69       C331.26,191.46,328.13,158.49,309.04,146.56z"/></g><g><path class="st1" d="M225.86,244.19c-0.03,0.01-0.06,0.02-0.09,0.04l0.05-0.09C225.83,244.15,225.84,244.17,225.86,244.19z        M229.43,248.33c-0.02,0.04-0.04,0.07-0.05,0.11l0.37,0.19C229.64,248.52,229.54,248.43,229.43,248.33z M311.96,162.6       l8.97,4.59c-0.67-2.64-1.52-5.16-2.57-7.5l-8.97-4.59C310.44,157.45,311.3,159.96,311.96,162.6z M322.48,177.07       c-0.19-2.7-0.54-5.31-1.06-7.82l-8.97-4.59c0.52,2.5,0.87,5.12,1.06,7.82L322.48,177.07z M322.01,191.02       c0.52-4.01,0.71-7.94,0.58-11.71l-8.97-4.59c0.13,3.77-0.07,7.69-0.58,11.71L322.01,191.02z M319.4,203.51       c0.95-3.29,1.68-6.56,2.21-9.78l-8.97-4.59c-0.53,3.22-1.27,6.49-2.21,9.78L319.4,203.51z M315.04,215.47       c1.48-3.35,2.75-6.72,3.8-10.07l-8.97-4.59c-1.04,3.35-2.31,6.71-3.8,10.07L315.04,215.47z M300.55,221.52l8.97,4.59       c1.12-1.86,2.19-3.78,3.2-5.76c0.53-1.03,1.03-2.07,1.51-3.11l-8.97-4.59c-0.48,1.04-0.99,2.07-1.51,3.11       C302.73,217.74,301.66,219.66,300.55,221.52z M303.05,235.53c1.78-2.28,3.49-4.69,5.1-7.21l-8.97-4.59       c-1.61,2.53-3.32,4.94-5.1,7.21L303.05,235.53z M294.96,244.5c2.29-2.2,4.51-4.59,6.64-7.16l-8.97-4.59       c-2.12,2.57-4.34,4.96-6.64,7.16L294.96,244.5z M287.43,250.83c2.4-1.75,4.75-3.71,7.04-5.86l-8.97-4.59       c-2.28,2.15-4.64,4.11-7.04,5.86L287.43,250.83z M278.35,256.38c2.76-1.37,5.5-3.01,8.19-4.91l-8.97-4.59       c-2.69,1.9-5.43,3.54-8.19,4.91L278.35,256.38z M253.65,256.48c-3.17,0.3-6.29,0.19-9.29-0.39l8.96,4.58       c3.01,0.57,6.12,0.69,9.3,0.39L253.65,256.48z M261.36,254.96c-2.39,0.71-4.76,1.2-7.11,1.46l8.97,4.59       c2.35-0.26,4.73-0.75,7.11-1.46L261.36,254.96z M271.22,259.28c2.01-0.64,4.03-1.43,6.03-2.37l-8.97-4.59       c-2.01,0.94-4.02,1.73-6.03,2.37L271.22,259.28z M317.69,158.25c-1.42-2.87-3.15-5.47-5.17-7.74l-8.96-4.58       c2.02,2.27,3.74,4.87,5.16,7.73L317.69,158.25z"/></g><g><ellipse transform="matrix(0.4553 -0.8903 0.8903 0.4553 -30.315 340.0149)" class="st1" cx="262.72" cy="194.78" rx="64.14" ry="42.71"/></g><g class="st10"><path class="st6" d="M310.38,169.26c0.63,6.52,0.25,13.59-1.18,20.87l-92.8,38.09c-1.44-5.88-1.93-12.42-1.43-19.3       L310.38,169.26z M306.56,200.25l-87.65,35.46c0.88,2,1.9,3.88,3.05,5.63l82.71-35.79       C305.36,203.78,305.99,202.01,306.56,200.25z M279.39,241.64c4.18-3.53,8.18-7.69,11.85-12.4l-54.11,24.19       c3.5,1.23,7.2,1.77,11,1.69L279.39,241.64z M222.52,179.88c-1.03,2.29-1.95,4.6-2.77,6.9l85.55-35.48       c-0.74-1.4-1.55-2.73-2.43-3.99L222.52,179.88z M233.13,161.76c-2.3,3.08-4.45,6.37-6.44,9.87l71.53-29.6       c-1.75-1.58-3.68-2.95-5.79-4.08L233.13,161.76z"/></g><g><ellipse transform="matrix(0.4553 -0.8903 0.8903 0.4553 -30.315 340.0149)" class="st7" cx="262.72" cy="194.78" rx="51.82" ry="34.51"/></g><g><ellipse transform="matrix(0.4553 -0.8903 0.8903 0.4553 -30.1781 341.8044)" class="st1" cx="264.25" cy="195.57" rx="48.02" ry="31.98"/></g><g class="st11"><path class="st6" d="M292.73,210.13c-0.13,0.25-0.26,0.5-0.39,0.75l-55.04,23.82c-1.49-1.41-2.8-3.04-3.92-4.84l61.79-25       C294.43,206.63,293.62,208.38,292.73,210.13z M228.79,203.17c-0.89,7.05-0.42,13.71,1.32,19.42l68.41-28.08       c1.74-7.34,2.07-14.46,1.06-20.77L228.79,203.17z M250.12,161.94l27.7-11.46C268.85,149.72,258.84,153.98,250.12,161.94z        M240.97,172.4c-1.65,2.34-3.19,4.84-4.6,7.49l55.36-22.96c-1.28-1.29-2.71-2.43-4.27-3.37L240.97,172.4z"/></g><g><path class="st7" d="M273.73,210.38c2.85-5.57,2.32-11.41-5.22-19.29l-0.34-0.35l8.5-16.62c0.99,0.56,2.02,1.26,3.08,2.15       l-1.08,4.17c-0.99,3.95,0.22,5.77,1.72,6.53c1.29,0.66,2.79,0.57,4.07-0.58c2.38-5.58-0.29-11.85-6.11-15.54l3.17-6.19       l-2.72-1.39l-3.15,6.16c-7.47-3.18-15.23-0.55-18.6,6.03c-3.47,6.79-1.14,12.62,4.71,18.78l0.72,0.76l-8.59,16.8       c-1.51-0.81-3.07-1.81-4.59-3.06l1.07-4.13c1.03-4.02-0.02-5.67-1.65-6.5c-1.49-0.76-2.83-0.5-4.13,0.54       c-2.71,5.95,0.6,12.66,7.64,16.41l-3.55,6.94l2.72,1.39l3.61-7.05C263.22,219.51,270.34,217,273.73,210.38z M263.08,176.73       c2.27-4.43,6.46-5.41,10.82-3.9l-7.97,15.58C262.25,184.56,260.94,180.91,263.08,176.73z M256.67,213.05l8.03-15.7       c4.02,4.47,5.11,7.6,3.06,11.6C265.52,213.34,261.39,214.67,256.67,213.05z"/></g></g></g><g><g><g><path class="st186" d="M376.24,199.78c-6.41,4.14-4.58,2.26-27.46,19.66c-22.89,17.39-79.65,16.48-79.65,16.48h-36.93       c0,0-56.76,0.92-79.65-16.48c-22.89-17.39-21.06-15.51-27.46-19.66c-6.41-4.14-60.42,42.55-45.77,146.91       c7.36,52.45,18.89,84.55,43.52,103.39h0c0,0,15.07,27.52,120.35,33.02c105.28,5.49,142.25-39.01,142.25-39.01l0,0       c19.93-19.41,29.94-50.14,36.58-97.4C436.67,242.32,382.65,195.63,376.24,199.78z"/></g><g><path class="st187" d="M106.78,372.32c-19.23-92.46-3.66-130,11.9-137.34c15.56-7.34,36.62,25.65,147.39,22.91       c70.63-1.75,113.35-21.51,135.03-35.6c-10.94-16.93-22.16-24.26-24.86-22.51c-6.41,4.14-4.58,2.26-27.46,19.66       c-22.89,17.39-79.65,16.48-79.65,16.48h-36.93c0,0-56.76,0.92-79.65-16.48c-22.89-17.39-21.06-15.51-27.46-19.66       c-6.41-4.14-60.42,42.55-45.77,146.91c7.36,52.45,18.89,84.55,43.52,103.39h0c0,0,3.23,5.88,17.07,12.74       C126.9,438.29,114.11,407.57,106.78,372.32z"/></g><g><path class="st188" d="M415.48,252.7c0.18,12.19-2.51,25.25-4.2,36.37c-0.67,4.39-1.73,8.63-3.3,12.79       c-3.81,10.12-7.87,20.51-12.9,30.14c-0.95,1.82-2,3.59-3.14,5.3c-5.95,8.93-12.82,17.49-19.69,25.67       c-1.32,1.58-2.69,3.11-4.14,4.57c-1.55,1.55-3.17,3.03-4.86,4.43c-8.2,6.81-16.72,13.46-25.43,19.61       c-3.57,2.52-7.34,4.74-11.26,6.68c-11.75,5.83-23.99,11.06-36.43,15.28c-4.24,1.44-8.57,2.6-12.95,3.48       c-13.19,2.66-26.68,4.41-40.09,5.45c-4.48,0.35-8.98,0.41-13.47,0.17c-2.19-0.12-4.37-0.34-6.55-0.59       c-10.95-1.28-22.06-2.45-32.91-4.57c-3.97-0.77-7.88-1.83-11.67-3.24c-25.44-9.45-43.68-18.41-63.56-37.46       c-13.27-12.72-24.12-29.19-31.39-46.57c0.41,5.32,0.99,10.81,1.79,16.47c7.36,52.45,18.89,84.55,43.52,103.39h0       c0,0,15.07,27.52,120.35,33.02c105.28,5.49,142.25-39.01,142.25-39.01c19.93-19.41,29.94-50.14,36.58-97.4       C427.56,307.24,423.28,276.04,415.48,252.7z"/></g></g><g><g><path class="st189" d="M376.21,452.36c9.43-28.95,19.22-71.45,18.12-121.06c-1.08-48.31-17.27-84.12-30.67-105.66       c-2.63-4.23-5.26-8.09-7.81-11.58c1.39-1.05,2.66-2,3.8-2.86c2.57,3.54,5.24,7.45,7.92,11.74       c13.76,22.06,30.39,58.75,31.49,108.24c1.03,46.26-7.3,86.43-16.11,115.45C381.46,448.09,379.23,450.07,376.21,452.36z        M339.49,471.48c6.56-24.96,14.8-68.64,12.53-125c-2.06-51.01-14.38-91.57-24.76-117.29c-1.52,0.43-3.06,0.83-4.62,1.21       c10.26,25.26,22.58,65.49,24.63,116.28c2.35,58.22-6.62,102.67-13.17,126.61C335.95,472.7,337.75,472.09,339.49,471.48z        M300.06,480.92c3.53-20.52,8.1-59.31,7.64-121.17c-0.45-59.21-8.77-100.97-15.3-124.77c-1.66,0.14-3.27,0.25-4.82,0.35       c6.46,23.24,14.92,64.86,15.37,124.45c0.47,62.6-4.38,101.82-7.89,121.79C296.76,481.37,298.42,481.15,300.06,480.92z        M246.69,483.26c1.6,0.07,3.18,0.12,4.75,0.17l1.47-247.51h-4.75L246.69,483.26z M197.79,359.79       c0.45-59.62,8.92-101.26,15.38-124.49c-1.55-0.1-3.16-0.23-4.81-0.37c-6.53,23.79-14.87,65.57-15.31,124.82       c-0.45,60.1,3.85,98.43,7.34,119.38c1.63,0.23,3.3,0.45,4.99,0.67C201.9,459.32,197.33,420.57,197.79,359.79z M124.45,452.15       c-9.41-28.94-19.14-71.33-18.04-120.84c1.08-48.31,17.27-84.12,30.66-105.66c2.7-4.35,5.41-8.3,8.02-11.87       c-1.4-1.06-2.66-2-3.81-2.85c-2.64,3.61-5.38,7.62-8.13,12.03c-13.76,22.06-30.39,58.75-31.49,108.24       c-1.02,45.65,7.09,85.39,15.76,114.31c1.73,1.6,3.53,3.13,5.42,4.57h0C122.84,450.08,123.26,450.85,124.45,452.15z        M153.47,346.67c2.06-50.88,14.42-91.16,24.69-116.41c-1.56-0.38-3.1-0.79-4.61-1.23c-10.39,25.72-22.75,66.34-24.82,117.45       c-2.26,55.95,5.85,99.4,12.38,124.45c1.69,0.5,3.46,1,5.3,1.5C159.88,448.28,151.15,404.2,153.47,346.67z"/></g><g><path class="st190" d="M199.31,423.18c1.55,25.84,4,44.45,6.06,56.61c-1.69-0.22-3.36-0.44-4.99-0.67       c-2.05-12.35-4.39-30.74-5.87-56.06C196.11,423.15,197.71,423.19,199.31,423.18z M151.34,417.91       c2.57,22.07,6.38,40.03,9.77,53.02c1.69,0.5,3.46,1,5.3,1.5c-3.44-12.72-7.5-31-10.22-53.85       C154.58,418.35,152.96,418.13,151.34,417.91z M108.41,408.87c2.63,13.54,5.78,25.85,9.02,36.64c1.73,1.6,3.53,3.13,5.42,4.57h0       c0,0,0.42,0.77,1.61,2.07c-3.82-11.74-7.69-25.71-10.87-41.46C111.85,410.12,110.12,409.52,108.41,408.87z M302.68,393.41       c-1.08,43.38-4.78,72.05-7.61,88.17c1.69-0.21,3.36-0.43,5-0.66c2.89-16.77,6.46-45.78,7.42-89.59       C305.88,392.02,304.28,392.72,302.68,393.41z M247.08,417.1l-0.39,66.16c1.6,0.07,3.18,0.12,4.75,0.17l0.4-67.67       C250.27,416.24,248.69,416.69,247.08,417.1z M399.04,330.19c-0.93,1.02-1.88,2.04-2.84,3.03c-0.6,0.62-1.21,1.22-1.82,1.83       c0.55,48-8.98,89.09-18.18,117.32c3.02-2.29,5.25-4.27,6.76-5.72c8.8-29.01,17.13-69.19,16.11-115.45       C399.07,330.86,399.05,330.53,399.04,330.19z M347.61,370.9c-0.53,46.33-7.9,81.88-13.51,102.38c1.85-0.59,3.65-1.19,5.39-1.81       c5.7-21.71,12.67-57.59,12.9-103.64C350.81,368.88,349.22,369.9,347.61,370.9z"/></g></g><g><g><path class="st189" d="M248.42,306.5c-80.78,0-135.24-16.64-168.22-31.9c2.7-14.27,6.8-26.44,11.45-36.58       c5.72,2.82,12.43,5.79,20.18,8.72c29.51,11.16,80.44,23.94,155.46,21.46c69.07-2.28,115.98-11.9,146.12-21.3       c4,10.52,7.31,22.84,9.25,36.98c-41.8,12.78-93.57,20.27-154.12,22.27C261.66,306.39,254.95,306.5,248.42,306.5z        M262.36,459.04c53.2-1.12,95.28-9.32,126.92-18.97c10.87-12.21,18.52-28.38,24.23-49.55c-4.82,2.2-10.29,4.51-16.44,6.82       c-26.77,10.09-72.01,22.4-135.51,23.73c-63.24,1.33-113.26-14.43-144.09-27.89c-13.48-5.88-24.57-11.85-33.05-16.9       c4.59,21.65,10.61,38.82,19.08,52.32c36.3,15.69,87.29,30.52,150.35,30.52C256.66,459.13,259.51,459.1,262.36,459.04z"/></g><g><path class="st191" d="M397.07,397.34c6.15-2.32,11.62-4.62,16.44-6.82c-5.72,21.17-13.36,37.35-24.23,49.55       c-31.64,9.66-73.72,17.85-126.92,18.97c-2.85,0.06-5.7,0.09-8.5,0.09c-63.06,0-114.05-14.84-150.35-30.52       c-3.48-5.54-6.53-11.71-9.25-18.55c15.07,7.96,37.28,17.44,69,26.39c74.78,21.1,156.84,10.02,192.61-5.94       c20.98-9.37,28.3-21.24,30.76-29.46C390.37,399.79,393.86,398.55,397.07,397.34z M377.51,272.26       c-36.7,19.57-115.85,28.66-199.35,18.59c-60.34-7.28-84.36-21.88-94.51-30.92c-1.31,4.62-2.47,9.5-3.45,14.67       c32.98,15.26,87.45,31.9,168.22,31.9c6.53,0,13.24-0.11,20.12-0.34c60.55-2,112.31-9.49,154.12-22.27       c-1.94-14.15-5.25-26.46-9.25-36.98c-5.01,1.56-10.49,3.13-16.45,4.67C396.85,257.24,392.35,264.35,377.51,272.26z"/></g><g class="st8"><path class="st192" d="M86.08,277.23c-2.03-0.88-4-1.76-5.89-2.63c2.7-14.27,6.8-26.44,11.45-36.58       c5.72,2.82,12.43,5.79,20.18,8.72c29.51,11.16,80.44,23.94,155.46,21.46c69.07-2.28,115.98-11.9,146.12-21.3       c0.85,2.23,1.65,4.55,2.43,6.94c-23.62,7.08-67.15,17.73-128.25,22.86c-96.1,8.06-143.26-7.83-172.74-16.13       C96,255.26,88.81,267.62,86.08,277.23z M101.58,400.7c5.23-0.61,78.7,33.1,162.67,29.81c61.9-2.43,119.64-19.47,145.71-28.25       c1.26-3.73,2.44-7.64,3.55-11.74c-4.82,2.2-10.29,4.51-16.44,6.82c-26.77,10.09-72.01,22.4-135.51,23.73       c-63.24,1.33-113.26-14.43-144.09-27.89c-13.48-5.88-24.57-11.85-33.05-16.9c4.59,21.65,10.61,38.82,19.08,52.32       c4.52,1.95,9.27,3.89,14.24,5.79C109.79,421.37,98.04,401.12,101.58,400.7z"/></g></g><g><g><path class="st6" d="M123.26,221.06c-9.18,0-9.16-14.24,0-14.24C132.44,206.82,132.43,221.06,123.26,221.06z M107.7,224.35       c-4.28,0-4.28,6.65,0,6.65C111.98,231,111.98,224.35,107.7,224.35z M97.63,247.68c-4.89,0-4.9,7.6,0,7.6       C102.52,255.28,102.52,247.68,97.63,247.68z M102.21,390.94c-5.5,0-5.51,8.54,0,8.54C107.7,399.48,107.71,390.94,102.21,390.94       z M104.95,406.13c-2.44,0-2.45,3.8,0,3.8C107.4,409.93,107.4,406.13,104.95,406.13z"/></g><g class="st193"><path class="st6" d="M411.64,277.72c-5.51,0-5.5-8.54,0-8.54C417.15,269.18,417.14,277.72,411.64,277.72z M400.2,281.31       c-0.07-0.24-0.19-0.45-0.37-0.63c-0.31-0.31-0.61-0.61-0.92-0.92c-0.13-0.14-0.28-0.24-0.46-0.29       c-0.17-0.09-0.35-0.13-0.55-0.12c-0.2-0.01-0.38,0.03-0.55,0.12c-0.18,0.06-0.33,0.16-0.46,0.29c-0.07,0.1-0.15,0.19-0.22,0.29       c-0.13,0.22-0.19,0.46-0.19,0.72c0.02,0.13,0.03,0.25,0.05,0.38c0.07,0.24,0.19,0.45,0.37,0.63l0.92,0.92       c0.13,0.14,0.28,0.24,0.46,0.29c0.17,0.09,0.35,0.13,0.55,0.12c0.2,0.01,0.38-0.03,0.55-0.12c0.18-0.06,0.33-0.16,0.46-0.29       l0.22-0.29c0.13-0.22,0.19-0.46,0.19-0.72C400.23,281.56,400.22,281.44,400.2,281.31z M386.92,420.2       c-6.72,0-6.73,10.44,0,10.44C393.64,430.64,393.66,420.2,386.92,420.2z M370.45,431.29c-3.05,0-3.06,4.75,0,4.75       C373.5,436.04,373.5,431.29,370.45,431.29z"/></g></g></g></g></g></svg>